<svg width="24" height="24" viewBox="0 0 24 24" fill="none" xmlns="http://www.w3.org/2000/svg">
<path d="M12.75 8.25C12.75 7.83579 12.4142 7.5 12 7.5C11.5858 7.5 11.25 7.83579 11.25 8.25V13.2923L9.10688 16.8641C8.89377 17.2193 9.00894 17.68 9.36413 17.8931C9.71931 18.1062 10.18 17.9911 10.3931 17.6359L12.6431 13.8859C12.7131 13.7693 12.75 13.6359 12.75 13.5V8.25Z" fill="#1ABC9C"/>
<path d="M9.75 0C9.33579 0 9 0.335786 9 0.75C9 1.16421 9.33579 1.5 9.75 1.5H10.5V3.10641C5.41123 3.83459 1.5 8.21021 1.5 13.5C1.5 16.8863 3.10344 19.8976 5.58982 21.8168L4.68694 22.7197C4.39405 23.0126 4.39405 23.4874 4.68694 23.7803C4.97984 24.0732 5.45471 24.0732 5.7476 23.7803L6.86644 22.6615C8.38473 23.5139 10.1365 24 12 24C13.8635 24 15.6153 23.5139 17.1336 22.6615L18.2524 23.7803C18.5453 24.0732 19.0202 24.0732 19.3131 23.7803C19.606 23.4874 19.606 23.0126 19.3131 22.7197L18.4102 21.8168C20.8966 19.8976 22.5 16.8863 22.5 13.5C22.5 8.21021 18.5888 3.83459 13.5 3.10641V1.5H14.25C14.6642 1.5 15 1.16421 15 0.75C15 0.335786 14.6642 0 14.25 0H9.75ZM11.3069 4.52626C11.5355 4.50886 11.7666 4.5 12 4.5C12.2334 4.5 12.4645 4.50886 12.6931 4.52626C17.3394 4.87971 21 8.76272 21 13.5C21 16.6855 19.3456 19.4851 16.8456 21.0856C15.4473 21.9809 13.7854 22.5 12 22.5C10.2146 22.5 8.55273 21.9809 7.15439 21.0856C4.6544 19.4851 3 16.6855 3 13.5C3 8.76272 6.66057 4.87971 11.3069 4.52626Z" fill="#1ABC9C"/>
<path d="M0 5.25C0 6.38002 0.499825 7.3933 1.29045 8.08082C2.44485 5.80398 4.30398 3.94485 6.58082 2.79045C5.8933 1.99982 4.88002 1.5 3.75 1.5C1.67893 1.5 0 3.17893 0 5.25Z" fill="#1ABC9C"/>
<path d="M20.25 1.5C19.12 1.5 18.1067 1.99982 17.4192 2.79045C19.696 3.94485 21.5551 5.80398 22.7095 8.08082C23.5002 7.3933 24 6.38002 24 5.25C24 3.17893 22.3211 1.5 20.25 1.5Z" fill="#1ABC9C"/>
</svg>
