<svg width="38" height="38" viewBox="0 0 38 38" fill="none" xmlns="http://www.w3.org/2000/svg">
<path d="M16.625 19C21.2159 19 24.9375 22.7216 24.9375 27.3125C24.9375 27.3564 24.9372 27.4003 24.9365 27.4441C24.9308 27.8144 25.0982 28.1663 25.3892 28.3954C25.6802 28.6246 26.0614 28.7048 26.4201 28.6124C26.7041 28.5392 27.0028 28.5 27.3125 28.5C29.28 28.5 30.875 30.095 30.875 32.0625C30.875 34.03 29.28 35.625 27.3125 35.625H7.125C4.50165 35.625 2.375 33.4984 2.375 30.875C2.375 28.2516 4.50165 26.125 7.125 26.125C7.20515 26.125 7.28479 26.127 7.3639 26.1309C7.9273 26.1587 8.4325 25.7863 8.57267 25.2399C9.49327 21.6512 12.751 19 16.625 19ZM27.2473 26.1254C26.6568 20.7815 22.1263 16.625 16.625 16.625C11.9615 16.625 7.99803 19.611 6.53759 23.7739C2.87735 24.0726 0 27.1378 0 30.875C0 34.81 3.18997 38 7.125 38H27.3125C30.5917 38 33.25 35.3417 33.25 32.0625C33.25 28.7833 30.5917 26.125 27.3125 26.125C27.2907 26.125 27.269 26.1251 27.2473 26.1254Z" fill="#CF3D3D"/>
<path d="M24.9375 3.5625C24.9375 2.90666 24.4058 2.375 23.75 2.375C23.0941 2.375 22.5625 2.90666 22.5625 3.5625V5.9375C22.5625 6.59334 23.0941 7.125 23.75 7.125C24.4058 7.125 24.9375 6.59334 24.9375 5.9375V3.5625ZM33.8262 8.22808C34.29 7.76433 34.29 7.01244 33.8262 6.5487C33.3625 6.08495 32.6106 6.08495 32.1469 6.5487L30.4675 8.22808C30.0037 8.69182 30.0037 9.44371 30.4675 9.90745C30.9312 10.3712 31.6831 10.3712 32.1469 9.90745L33.8262 8.22808ZM15.3531 6.5487C14.8894 6.08495 14.1375 6.08495 13.6737 6.5487C13.21 7.01245 13.21 7.76433 13.6737 8.22808L15.3531 9.90746C15.8169 10.3712 16.5687 10.3712 17.0325 9.90746C17.4962 9.44371 17.4962 8.69183 17.0325 8.22808L15.3531 6.5487ZM19.4707 14.5608C20.2388 12.9714 21.8664 11.875 23.75 11.875C26.3734 11.875 28.5 14.0016 28.5 16.625C28.5 17.8368 28.0462 18.9427 27.2992 19.7819C27.7709 20.4494 28.1816 21.1631 28.5231 21.9149C29.9673 20.611 30.875 18.724 30.875 16.625C30.875 12.6899 27.685 9.49997 23.75 9.49997C20.6454 9.49997 18.0046 11.4856 17.0283 14.2561C17.8646 14.2815 18.6811 14.3854 19.4707 14.5608ZM30.1209 24.2364C31.5459 24.7478 32.7907 25.6374 33.7344 26.7841C33.7661 26.7584 33.7968 26.7308 33.8263 26.7012C34.29 26.2375 34.29 25.4856 33.8263 25.0219L32.1469 23.3425C31.6831 22.8787 30.9313 22.8787 30.4675 23.3425C30.2218 23.5882 30.1063 23.9147 30.1209 24.2364ZM34.4375 15.4375C33.7817 15.4375 33.25 15.9691 33.25 16.625C33.25 17.2808 33.7817 17.8125 34.4375 17.8125L36.8125 17.8125C37.4683 17.8125 38 17.2808 38 16.625C38 15.9691 37.4683 15.4375 36.8125 15.4375L34.4375 15.4375Z" fill="#CF3D3D"/>
</svg>
