<svg width="18" height="18" viewBox="0 0 18 18" fill="none" xmlns="http://www.w3.org/2000/svg">
<path d="M13.6865 10.0572C13.097 11.2517 12.299 12.4426 11.4815 13.5113C10.6665 14.5766 9.84873 15.4989 9.23364 16.1555C9.15191 16.2428 9.07387 16.3252 9 16.4026C8.92613 16.3252 8.84809 16.2428 8.76636 16.1555C8.15127 15.4989 7.33352 14.5766 6.51853 13.5113C5.70098 12.4426 4.90303 11.2517 4.31351 10.0572C3.7179 8.85046 3.375 7.71965 3.375 6.75C3.375 3.6434 5.8934 1.125 9 1.125C12.1066 1.125 14.625 3.6434 14.625 6.75C14.625 7.71965 14.2821 8.85046 13.6865 10.0572ZM9 18C9 18 15.75 11.6029 15.75 6.75C15.75 3.02208 12.7279 0 9 0C5.27208 0 2.25 3.02208 2.25 6.75C2.25 11.6029 9 18 9 18Z" fill="#E3DFDF"/>
<path d="M9 9C7.75736 9 6.75 7.99264 6.75 6.75C6.75 5.50736 7.75736 4.5 9 4.5C10.2426 4.5 11.25 5.50736 11.25 6.75C11.25 7.99264 10.2426 9 9 9ZM9 10.125C10.864 10.125 12.375 8.61396 12.375 6.75C12.375 4.88604 10.864 3.375 9 3.375C7.13604 3.375 5.625 4.88604 5.625 6.75C5.625 8.61396 7.13604 10.125 9 10.125Z" fill="#E3DFDF"/>
</svg>
