<svg width="24" height="24" viewBox="0 0 24 24" fill="none" xmlns="http://www.w3.org/2000/svg">
<path fill-rule="evenodd" clip-rule="evenodd" d="M12 1.5C9.51472 1.5 7.5 3.51472 7.5 6C7.5 8.48528 9.51472 10.5 12 10.5C14.4853 10.5 16.5 8.48528 16.5 6C16.5 3.51472 14.4853 1.5 12 1.5ZM6 6C6 2.68629 8.68629 0 12 0C15.3137 0 18 2.68629 18 6C18 9.05971 15.7097 11.5845 12.75 11.9536V20.25C12.75 20.6642 12.4142 21 12 21C11.5858 21 11.25 20.6642 11.25 20.25V11.9536C8.29027 11.5845 6 9.05971 6 6ZM9.73992 18.8613C9.80761 19.27 9.53121 19.6561 9.12257 19.7238C8.05539 19.9006 7.20386 20.1658 6.64114 20.4623C6.35942 20.6107 6.1833 20.7498 6.08578 20.8603C6.03897 20.9133 6.01737 20.9518 6.0079 20.9736C6.00329 20.9842 6.00147 20.9911 6.00074 20.9944C6.00004 20.9977 6 20.9993 6 21C6 21.0006 5.99993 21.0037 6.00229 21.0115C6.00484 21.0199 6.01112 21.0364 6.02631 21.0611C6.05814 21.113 6.12306 21.1909 6.24468 21.2868C6.49231 21.4819 6.89712 21.6905 7.4642 21.8795C8.59052 22.255 10.1942 22.5 12 22.5C13.8058 22.5 15.4095 22.255 16.5358 21.8795C17.1029 21.6905 17.5077 21.4819 17.7553 21.2868C17.8769 21.1909 17.9419 21.113 17.9737 21.0611C17.9889 21.0364 17.9952 21.0199 17.9977 21.0115C18 21.0039 18 21.0008 18 21.0001V21C18 20.9993 18 20.9977 17.9993 20.9944C17.9985 20.9911 17.9967 20.9842 17.9921 20.9736C17.9826 20.9518 17.961 20.9133 17.9142 20.8603C17.8167 20.7498 17.6406 20.6107 17.3589 20.4623C16.7961 20.1658 15.9446 19.9006 14.8774 19.7238C14.4688 19.6561 14.1924 19.27 14.2601 18.8613C14.3278 18.4527 14.7139 18.1763 15.1226 18.244C16.278 18.4354 17.3014 18.7366 18.0581 19.1352C18.7513 19.5005 19.5 20.1021 19.5 21C19.5 21.639 19.1108 22.1283 18.6838 22.4649C18.2483 22.8081 17.6646 23.0844 17.0101 23.3025C15.6934 23.7414 13.9221 24 12 24C10.0779 24 8.30656 23.7414 6.98986 23.3025C6.33543 23.0844 5.75172 22.8081 5.31622 22.4649C4.88917 22.1283 4.5 21.639 4.5 21C4.5 20.1021 5.24868 19.5005 5.94192 19.1352C6.69856 18.7366 7.72203 18.4354 8.87743 18.244C9.28608 18.1763 9.67222 18.4527 9.73992 18.8613Z" fill="#1ABC9C"/>
</svg>
