<svg width="411" height="313" viewBox="0 0 411 313" fill="none" xmlns="http://www.w3.org/2000/svg">
<path fill-rule="evenodd" clip-rule="evenodd" d="M103 127.5C100.515 127.5 98.5 129.515 98.5 132C98.5 134.485 100.515 136.5 103 136.5C105.485 136.5 107.5 134.485 107.5 132C107.5 129.515 105.485 127.5 103 127.5ZM97 132C97 128.686 99.6863 126 103 126C106.314 126 109 128.686 109 132C109 135.06 106.71 137.585 103.75 137.954V146.25C103.75 146.664 103.414 147 103 147C102.586 147 102.25 146.664 102.25 146.25V137.954C99.2903 137.585 97 135.06 97 132ZM100.74 144.861C100.808 145.27 100.531 145.656 100.123 145.724C99.0554 145.901 98.2039 146.166 97.6411 146.462C97.3594 146.611 97.1833 146.75 97.0858 146.86C97.039 146.913 97.0174 146.952 97.0079 146.974C97.0033 146.984 97.0015 146.991 97.0007 146.994C97 146.998 97 146.999 97 147C97 147.001 96.9999 147.004 97.0023 147.012C97.0048 147.02 97.0111 147.036 97.0263 147.061C97.0581 147.113 97.1231 147.191 97.2447 147.287C97.4923 147.482 97.8971 147.69 98.4642 147.88C99.5905 148.255 101.194 148.5 103 148.5C104.806 148.5 106.409 148.255 107.536 147.88C108.103 147.69 108.508 147.482 108.755 147.287C108.877 147.191 108.942 147.113 108.974 147.061C108.989 147.036 108.995 147.02 108.998 147.012C109 147.004 109 147.001 109 147V147C109 146.999 109 146.998 108.999 146.994C108.999 146.991 108.997 146.984 108.992 146.974C108.983 146.952 108.961 146.913 108.914 146.86C108.817 146.75 108.641 146.611 108.359 146.462C107.796 146.166 106.945 145.901 105.877 145.724C105.469 145.656 105.192 145.27 105.26 144.861C105.328 144.453 105.714 144.176 106.123 144.244C107.278 144.435 108.301 144.737 109.058 145.135C109.751 145.5 110.5 146.102 110.5 147C110.5 147.639 110.111 148.128 109.684 148.465C109.248 148.808 108.665 149.084 108.01 149.303C106.693 149.741 104.922 150 103 150C101.078 150 99.3066 149.741 97.9899 149.303C97.3354 149.084 96.7517 148.808 96.3162 148.465C95.8892 148.128 95.5 147.639 95.5 147C95.5 146.102 96.2487 145.5 96.9419 145.135C97.6986 144.737 98.722 144.435 99.8774 144.244C100.286 144.176 100.672 144.453 100.74 144.861Z" fill="#1ABC9C"/>
<path d="M149.89 137.09C149.542 136.358 149.038 135.794 148.378 135.398C147.718 134.99 146.95 134.786 146.074 134.786C145.198 134.786 144.406 134.99 143.698 135.398C143.002 135.794 142.45 136.37 142.042 137.126C141.646 137.87 141.448 138.734 141.448 139.718C141.448 140.702 141.646 141.566 142.042 142.31C142.45 143.054 143.002 143.63 143.698 144.038C144.406 144.434 145.198 144.632 146.074 144.632C147.298 144.632 148.306 144.266 149.098 143.534C149.89 142.802 150.352 141.812 150.484 140.564H145.48V139.232H152.23V140.492C152.134 141.524 151.81 142.472 151.258 143.336C150.706 144.188 149.98 144.866 149.08 145.37C148.18 145.862 147.178 146.108 146.074 146.108C144.91 146.108 143.848 145.838 142.888 145.298C141.928 144.746 141.166 143.984 140.602 143.012C140.05 142.04 139.774 140.942 139.774 139.718C139.774 138.494 140.05 137.396 140.602 136.424C141.166 135.44 141.928 134.678 142.888 134.138C143.848 133.586 144.91 133.31 146.074 133.31C147.406 133.31 148.582 133.64 149.602 134.3C150.634 134.96 151.384 135.89 151.852 137.09H149.89ZM156.034 144.668H160.426V146H154.396V133.454H156.034V144.668ZM167.853 146.126C166.689 146.126 165.627 145.856 164.667 145.316C163.707 144.764 162.945 144.002 162.381 143.03C161.829 142.046 161.553 140.942 161.553 139.718C161.553 138.494 161.829 137.396 162.381 136.424C162.945 135.44 163.707 134.678 164.667 134.138C165.627 133.586 166.689 133.31 167.853 133.31C169.029 133.31 170.097 133.586 171.057 134.138C172.017 134.678 172.773 135.434 173.325 136.406C173.877 137.378 174.153 138.482 174.153 139.718C174.153 140.954 173.877 142.058 173.325 143.03C172.773 144.002 172.017 144.764 171.057 145.316C170.097 145.856 169.029 146.126 167.853 146.126ZM167.853 144.704C168.729 144.704 169.515 144.5 170.211 144.092C170.919 143.684 171.471 143.102 171.867 142.346C172.275 141.59 172.479 140.714 172.479 139.718C172.479 138.71 172.275 137.834 171.867 137.09C171.471 136.334 170.925 135.752 170.229 135.344C169.533 134.936 168.741 134.732 167.853 134.732C166.965 134.732 166.173 134.936 165.477 135.344C164.781 135.752 164.229 136.334 163.821 137.09C163.425 137.834 163.227 138.71 163.227 139.718C163.227 140.714 163.425 141.59 163.821 142.346C164.229 143.102 164.781 143.684 165.477 144.092C166.185 144.5 166.977 144.704 167.853 144.704ZM182.598 139.538C183.054 139.61 183.468 139.796 183.84 140.096C184.224 140.396 184.524 140.768 184.74 141.212C184.968 141.656 185.082 142.13 185.082 142.634C185.082 143.27 184.92 143.846 184.596 144.362C184.272 144.866 183.798 145.268 183.174 145.568C182.562 145.856 181.836 146 180.996 146H176.316V133.454H180.816C181.668 133.454 182.394 133.598 182.994 133.886C183.594 134.162 184.044 134.54 184.344 135.02C184.644 135.5 184.794 136.04 184.794 136.64C184.794 137.384 184.59 138.002 184.182 138.494C183.786 138.974 183.258 139.322 182.598 139.538ZM177.954 138.872H180.708C181.476 138.872 182.07 138.692 182.49 138.332C182.91 137.972 183.12 137.474 183.12 136.838C183.12 136.202 182.91 135.704 182.49 135.344C182.07 134.984 181.464 134.804 180.672 134.804H177.954V138.872ZM180.852 144.65C181.668 144.65 182.304 144.458 182.76 144.074C183.216 143.69 183.444 143.156 183.444 142.472C183.444 141.776 183.204 141.23 182.724 140.834C182.244 140.426 181.602 140.222 180.798 140.222H177.954V144.65H180.852ZM194.771 143.21H189.299L188.291 146H186.563L191.099 133.526H192.989L197.507 146H195.779L194.771 143.21ZM194.303 141.878L192.035 135.542L189.767 141.878H194.303ZM201.122 144.668H205.514V146H199.484V133.454H201.122V144.668ZM206.641 139.718C206.641 138.494 206.917 137.396 207.469 136.424C208.021 135.44 208.771 134.672 209.719 134.12C210.679 133.568 211.741 133.292 212.905 133.292C214.273 133.292 215.467 133.622 216.487 134.282C217.507 134.942 218.251 135.878 218.719 137.09H216.757C216.409 136.334 215.905 135.752 215.245 135.344C214.597 134.936 213.817 134.732 212.905 134.732C212.029 134.732 211.243 134.936 210.547 135.344C209.851 135.752 209.305 136.334 208.909 137.09C208.513 137.834 208.315 138.71 208.315 139.718C208.315 140.714 208.513 141.59 208.909 142.346C209.305 143.09 209.851 143.666 210.547 144.074C211.243 144.482 212.029 144.686 212.905 144.686C213.817 144.686 214.597 144.488 215.245 144.092C215.905 143.684 216.409 143.102 216.757 142.346H218.719C218.251 143.546 217.507 144.476 216.487 145.136C215.467 145.784 214.273 146.108 212.905 146.108C211.741 146.108 210.679 145.838 209.719 145.298C208.771 144.746 208.021 143.984 207.469 143.012C206.917 142.04 206.641 140.942 206.641 139.718ZM226.845 146.126C225.681 146.126 224.619 145.856 223.659 145.316C222.699 144.764 221.937 144.002 221.373 143.03C220.821 142.046 220.545 140.942 220.545 139.718C220.545 138.494 220.821 137.396 221.373 136.424C221.937 135.44 222.699 134.678 223.659 134.138C224.619 133.586 225.681 133.31 226.845 133.31C228.021 133.31 229.089 133.586 230.049 134.138C231.009 134.678 231.765 135.434 232.317 136.406C232.869 137.378 233.145 138.482 233.145 139.718C233.145 140.954 232.869 142.058 232.317 143.03C231.765 144.002 231.009 144.764 230.049 145.316C229.089 145.856 228.021 146.126 226.845 146.126ZM226.845 144.704C227.721 144.704 228.507 144.5 229.203 144.092C229.911 143.684 230.463 143.102 230.859 142.346C231.267 141.59 231.471 140.714 231.471 139.718C231.471 138.71 231.267 137.834 230.859 137.09C230.463 136.334 229.917 135.752 229.221 135.344C228.525 134.936 227.733 134.732 226.845 134.732C225.957 134.732 225.165 134.936 224.469 135.344C223.773 135.752 223.221 136.334 222.813 137.09C222.417 137.834 222.219 138.71 222.219 139.718C222.219 140.714 222.417 141.59 222.813 142.346C223.221 143.102 223.773 143.684 224.469 144.092C225.177 144.5 225.969 144.704 226.845 144.704ZM245.172 146H243.534L236.946 136.01V146H235.308V133.436H236.946L243.534 143.408V133.436H245.172V146ZM257.828 146H256.19L249.602 136.01V146H247.964V133.436H249.602L256.19 143.408V133.436H257.828V146ZM262.258 134.786V138.98H266.83V140.33H262.258V144.65H267.37V146H260.62V133.436H267.37V134.786H262.258ZM269.237 139.718C269.237 138.494 269.513 137.396 270.065 136.424C270.617 135.44 271.367 134.672 272.315 134.12C273.275 133.568 274.337 133.292 275.501 133.292C276.869 133.292 278.063 133.622 279.083 134.282C280.103 134.942 280.847 135.878 281.315 137.09H279.353C279.005 136.334 278.501 135.752 277.841 135.344C277.193 134.936 276.413 134.732 275.501 134.732C274.625 134.732 273.839 134.936 273.143 135.344C272.447 135.752 271.901 136.334 271.505 137.09C271.109 137.834 270.911 138.71 270.911 139.718C270.911 140.714 271.109 141.59 271.505 142.346C271.901 143.09 272.447 143.666 273.143 144.074C273.839 144.482 274.625 144.686 275.501 144.686C276.413 144.686 277.193 144.488 277.841 144.092C278.501 143.684 279.005 143.102 279.353 142.346H281.315C280.847 143.546 280.103 144.476 279.083 145.136C278.063 145.784 276.869 146.108 275.501 146.108C274.337 146.108 273.275 145.838 272.315 145.298C271.367 144.746 270.617 143.984 270.065 143.012C269.513 142.04 269.237 140.942 269.237 139.718ZM291.475 133.454V134.786H288.055V146H286.417V134.786H282.979V133.454H291.475ZM305.706 143.21H300.234L299.226 146H297.498L302.034 133.526H303.924L308.442 146H306.714L305.706 143.21ZM305.238 141.878L302.97 135.542L300.702 141.878H305.238ZM314.397 146.126C313.569 146.126 312.825 145.982 312.165 145.694C311.517 145.394 311.007 144.986 310.635 144.47C310.263 143.942 310.071 143.336 310.059 142.652H311.805C311.865 143.24 312.105 143.738 312.525 144.146C312.957 144.542 313.581 144.74 314.397 144.74C315.177 144.74 315.789 144.548 316.233 144.164C316.689 143.768 316.917 143.264 316.917 142.652C316.917 142.172 316.785 141.782 316.521 141.482C316.257 141.182 315.927 140.954 315.531 140.798C315.135 140.642 314.601 140.474 313.929 140.294C313.101 140.078 312.435 139.862 311.931 139.646C311.439 139.43 311.013 139.094 310.653 138.638C310.305 138.17 310.131 137.546 310.131 136.766C310.131 136.082 310.305 135.476 310.653 134.948C311.001 134.42 311.487 134.012 312.111 133.724C312.747 133.436 313.473 133.292 314.289 133.292C315.465 133.292 316.425 133.586 317.169 134.174C317.925 134.762 318.351 135.542 318.447 136.514H316.647C316.587 136.034 316.335 135.614 315.891 135.254C315.447 134.882 314.859 134.696 314.127 134.696C313.443 134.696 312.885 134.876 312.453 135.236C312.021 135.584 311.805 136.076 311.805 136.712C311.805 137.168 311.931 137.54 312.183 137.828C312.447 138.116 312.765 138.338 313.137 138.494C313.521 138.638 314.055 138.806 314.739 138.998C315.567 139.226 316.233 139.454 316.737 139.682C317.241 139.898 317.673 140.24 318.033 140.708C318.393 141.164 318.573 141.788 318.573 142.58C318.573 143.192 318.411 143.768 318.087 144.308C317.763 144.848 317.283 145.286 316.647 145.622C316.011 145.958 315.261 146.126 314.397 146.126Z" fill="black"/>
<path d="M143.492 94.232C142.82 93.968 142.304 93.584 141.944 93.08C141.584 92.576 141.404 91.964 141.404 91.244C141.404 90.596 141.566 90.014 141.89 89.498C142.214 88.97 142.694 88.556 143.33 88.256C143.978 87.944 144.758 87.788 145.67 87.788C146.582 87.788 147.356 87.944 147.992 88.256C148.64 88.556 149.126 88.97 149.45 89.498C149.786 90.014 149.954 90.596 149.954 91.244C149.954 91.94 149.768 92.552 149.396 93.08C149.024 93.596 148.514 93.98 147.866 94.232C148.61 94.46 149.198 94.862 149.63 95.438C150.074 96.002 150.296 96.686 150.296 97.49C150.296 98.27 150.104 98.954 149.72 99.542C149.336 100.118 148.79 100.568 148.082 100.892C147.386 101.204 146.582 101.36 145.67 101.36C144.758 101.36 143.954 101.204 143.258 100.892C142.574 100.568 142.04 100.118 141.656 99.542C141.272 98.954 141.08 98.27 141.08 97.49C141.08 96.686 141.296 95.996 141.728 95.42C142.16 94.844 142.748 94.448 143.492 94.232ZM148.37 91.442C148.37 90.71 148.13 90.146 147.65 89.75C147.17 89.354 146.51 89.156 145.67 89.156C144.842 89.156 144.188 89.354 143.708 89.75C143.228 90.146 142.988 90.716 142.988 91.46C142.988 92.132 143.234 92.672 143.726 93.08C144.23 93.488 144.878 93.692 145.67 93.692C146.474 93.692 147.122 93.488 147.614 93.08C148.118 92.66 148.37 92.114 148.37 91.442ZM145.67 94.952C144.782 94.952 144.056 95.162 143.492 95.582C142.928 95.99 142.646 96.608 142.646 97.436C142.646 98.204 142.916 98.822 143.456 99.29C144.008 99.758 144.746 99.992 145.67 99.992C146.594 99.992 147.326 99.758 147.866 99.29C148.406 98.822 148.676 98.204 148.676 97.436C148.676 96.632 148.4 96.02 147.848 95.6C147.296 95.168 146.57 94.952 145.67 94.952ZM160.769 89.408H154.451V93.512C154.727 93.128 155.135 92.816 155.675 92.576C156.215 92.324 156.797 92.198 157.421 92.198C158.417 92.198 159.227 92.408 159.851 92.828C160.475 93.236 160.919 93.77 161.183 94.43C161.459 95.078 161.597 95.768 161.597 96.5C161.597 97.364 161.435 98.138 161.111 98.822C160.787 99.506 160.289 100.046 159.617 100.442C158.957 100.838 158.135 101.036 157.151 101.036C155.891 101.036 154.871 100.712 154.091 100.064C153.311 99.416 152.837 98.552 152.669 97.472H154.271C154.427 98.156 154.757 98.69 155.261 99.074C155.765 99.458 156.401 99.65 157.169 99.65C158.117 99.65 158.831 99.368 159.311 98.804C159.791 98.228 160.031 97.472 160.031 96.536C160.031 95.6 159.791 94.88 159.311 94.376C158.831 93.86 158.123 93.602 157.187 93.602C156.551 93.602 155.993 93.758 155.513 94.07C155.045 94.37 154.703 94.784 154.487 95.312H152.939V87.968H160.769V89.408ZM164.566 101.108C164.254 101.108 163.99 101 163.774 100.784C163.558 100.568 163.45 100.304 163.45 99.992C163.45 99.68 163.558 99.416 163.774 99.2C163.99 98.984 164.254 98.876 164.566 98.876C164.866 98.876 165.118 98.984 165.322 99.2C165.538 99.416 165.646 99.68 165.646 99.992C165.646 100.304 165.538 100.568 165.322 100.784C165.118 101 164.866 101.108 164.566 101.108ZM167.356 99.686C168.88 98.462 170.074 97.46 170.938 96.68C171.802 95.888 172.528 95.066 173.116 94.214C173.716 93.35 174.016 92.504 174.016 91.676C174.016 90.896 173.824 90.284 173.44 89.84C173.068 89.384 172.462 89.156 171.622 89.156C170.806 89.156 170.17 89.414 169.714 89.93C169.27 90.434 169.03 91.112 168.994 91.964H167.41C167.458 90.62 167.866 89.582 168.634 88.85C169.402 88.118 170.392 87.752 171.604 87.752C172.84 87.752 173.818 88.094 174.538 88.778C175.27 89.462 175.636 90.404 175.636 91.604C175.636 92.6 175.336 93.572 174.736 94.52C174.148 95.456 173.476 96.284 172.72 97.004C171.964 97.712 170.998 98.54 169.822 99.488H176.014V100.856H167.356V99.686ZM186.205 89.408H179.887V93.512C180.163 93.128 180.571 92.816 181.111 92.576C181.651 92.324 182.233 92.198 182.857 92.198C183.853 92.198 184.663 92.408 185.287 92.828C185.911 93.236 186.355 93.77 186.619 94.43C186.895 95.078 187.033 95.768 187.033 96.5C187.033 97.364 186.871 98.138 186.547 98.822C186.223 99.506 185.725 100.046 185.053 100.442C184.393 100.838 183.571 101.036 182.587 101.036C181.327 101.036 180.307 100.712 179.527 100.064C178.747 99.416 178.273 98.552 178.105 97.472H179.707C179.863 98.156 180.193 98.69 180.697 99.074C181.201 99.458 181.837 99.65 182.605 99.65C183.553 99.65 184.267 99.368 184.747 98.804C185.227 98.228 185.467 97.472 185.467 96.536C185.467 95.6 185.227 94.88 184.747 94.376C184.267 93.86 183.559 93.602 182.623 93.602C181.987 93.602 181.429 93.758 180.949 94.07C180.481 94.37 180.139 94.784 179.923 95.312H178.375V87.968H186.205V89.408ZM189.012 99.686C190.536 98.462 191.73 97.46 192.594 96.68C193.458 95.888 194.184 95.066 194.772 94.214C195.372 93.35 195.672 92.504 195.672 91.676C195.672 90.896 195.48 90.284 195.096 89.84C194.724 89.384 194.118 89.156 193.278 89.156C192.462 89.156 191.826 89.414 191.37 89.93C190.926 90.434 190.686 91.112 190.65 91.964H189.066C189.114 90.62 189.522 89.582 190.29 88.85C191.058 88.118 192.048 87.752 193.26 87.752C194.496 87.752 195.474 88.094 196.194 88.778C196.926 89.462 197.292 90.404 197.292 91.604C197.292 92.6 196.992 93.572 196.392 94.52C195.804 95.456 195.132 96.284 194.376 97.004C193.62 97.712 192.654 98.54 191.478 99.488H197.67V100.856H189.012V99.686ZM200.355 101.108C200.043 101.108 199.779 101 199.563 100.784C199.347 100.568 199.239 100.304 199.239 99.992C199.239 99.68 199.347 99.416 199.563 99.2C199.779 98.984 200.043 98.876 200.355 98.876C200.655 98.876 200.907 98.984 201.111 99.2C201.327 99.416 201.435 99.68 201.435 99.992C201.435 100.304 201.327 100.568 201.111 100.784C200.907 101 200.655 101.108 200.355 101.108ZM203.307 91.262C203.391 90.158 203.817 89.294 204.585 88.67C205.353 88.046 206.349 87.734 207.573 87.734C208.389 87.734 209.091 87.884 209.679 88.184C210.279 88.472 210.729 88.868 211.029 89.372C211.341 89.876 211.497 90.446 211.497 91.082C211.497 91.826 211.281 92.468 210.849 93.008C210.429 93.548 209.877 93.896 209.193 94.052V94.142C209.973 94.334 210.591 94.712 211.047 95.276C211.503 95.84 211.731 96.578 211.731 97.49C211.731 98.174 211.575 98.792 211.263 99.344C210.951 99.884 210.483 100.31 209.859 100.622C209.235 100.934 208.485 101.09 207.609 101.09C206.337 101.09 205.293 100.76 204.477 100.1C203.661 99.428 203.205 98.48 203.109 97.256H204.693C204.777 97.976 205.071 98.564 205.575 99.02C206.079 99.476 206.751 99.704 207.591 99.704C208.431 99.704 209.067 99.488 209.499 99.056C209.943 98.612 210.165 98.042 210.165 97.346C210.165 96.446 209.865 95.798 209.265 95.402C208.665 95.006 207.759 94.808 206.547 94.808H206.133V93.44H206.565C207.669 93.428 208.503 93.248 209.067 92.9C209.631 92.54 209.913 91.988 209.913 91.244C209.913 90.608 209.703 90.098 209.283 89.714C208.875 89.33 208.287 89.138 207.519 89.138C206.775 89.138 206.175 89.33 205.719 89.714C205.263 90.098 204.993 90.614 204.909 91.262H203.307ZM214.734 101.108C214.422 101.108 214.158 101 213.942 100.784C213.726 100.568 213.618 100.304 213.618 99.992C213.618 99.68 213.726 99.416 213.942 99.2C214.158 98.984 214.422 98.876 214.734 98.876C215.034 98.876 215.286 98.984 215.49 99.2C215.706 99.416 215.814 99.68 215.814 99.992C215.814 100.304 215.706 100.568 215.49 100.784C215.286 101 215.034 101.108 214.734 101.108ZM225.731 89.264L220.727 101H219.071L224.147 89.426H217.199V88.022H225.731V89.264ZM229.924 94.232C229.252 93.968 228.736 93.584 228.376 93.08C228.016 92.576 227.836 91.964 227.836 91.244C227.836 90.596 227.998 90.014 228.322 89.498C228.646 88.97 229.126 88.556 229.762 88.256C230.41 87.944 231.19 87.788 232.102 87.788C233.014 87.788 233.788 87.944 234.424 88.256C235.072 88.556 235.558 88.97 235.882 89.498C236.218 90.014 236.386 90.596 236.386 91.244C236.386 91.94 236.2 92.552 235.828 93.08C235.456 93.596 234.946 93.98 234.298 94.232C235.042 94.46 235.63 94.862 236.062 95.438C236.506 96.002 236.728 96.686 236.728 97.49C236.728 98.27 236.536 98.954 236.152 99.542C235.768 100.118 235.222 100.568 234.514 100.892C233.818 101.204 233.014 101.36 232.102 101.36C231.19 101.36 230.386 101.204 229.69 100.892C229.006 100.568 228.472 100.118 228.088 99.542C227.704 98.954 227.512 98.27 227.512 97.49C227.512 96.686 227.728 95.996 228.16 95.42C228.592 94.844 229.18 94.448 229.924 94.232ZM234.802 91.442C234.802 90.71 234.562 90.146 234.082 89.75C233.602 89.354 232.942 89.156 232.102 89.156C231.274 89.156 230.62 89.354 230.14 89.75C229.66 90.146 229.42 90.716 229.42 91.46C229.42 92.132 229.666 92.672 230.158 93.08C230.662 93.488 231.31 93.692 232.102 93.692C232.906 93.692 233.554 93.488 234.046 93.08C234.55 92.66 234.802 92.114 234.802 91.442ZM232.102 94.952C231.214 94.952 230.488 95.162 229.924 95.582C229.36 95.99 229.078 96.608 229.078 97.436C229.078 98.204 229.348 98.822 229.888 99.29C230.44 99.758 231.178 99.992 232.102 99.992C233.026 99.992 233.758 99.758 234.298 99.29C234.838 98.822 235.108 98.204 235.108 97.436C235.108 96.632 234.832 96.02 234.28 95.6C233.728 95.168 233.002 94.952 232.102 94.952Z" fill="black"/>
<path d="M113.122 86.273C113.342 86.4924 113.403 86.8243 113.277 87.1079L104.792 106.2C104.671 106.472 104.4 106.647 104.102 106.645C103.803 106.643 103.535 106.465 103.417 106.191L100.353 99.0418L93.2046 95.9779C92.9305 95.8605 92.752 95.5918 92.75 95.2936C92.748 94.9954 92.9229 94.7243 93.1954 94.6032L112.287 86.1179C112.571 85.9919 112.903 86.0535 113.122 86.273ZM95.3748 95.2761L101.22 97.7812C101.397 97.8571 101.538 97.9981 101.614 98.1751L104.119 104.02L111.115 88.2806L95.3748 95.2761Z" fill="#1ABC9C"/>
<path d="M114.5 189C114.5 189 116 189 116 187.5C116 186 114.5 181.5 108.5 181.5C102.5 181.5 101 186 101 187.5C101 189 102.5 189 102.5 189H114.5ZM102.534 187.5C102.528 187.499 102.521 187.498 102.512 187.497C102.508 187.496 102.504 187.496 102.5 187.495C102.502 187.099 102.75 185.95 103.639 184.914C104.47 183.944 105.924 183 108.5 183C111.076 183 112.53 183.944 113.361 184.914C114.25 185.95 114.498 187.099 114.5 187.495C114.496 187.496 114.492 187.496 114.488 187.497C114.479 187.498 114.472 187.499 114.466 187.5H102.534Z" fill="#1ABC9C"/>
<path d="M108.5 178.5C110.157 178.5 111.5 177.157 111.5 175.5C111.5 173.843 110.157 172.5 108.5 172.5C106.843 172.5 105.5 173.843 105.5 175.5C105.5 177.157 106.843 178.5 108.5 178.5ZM113 175.5C113 177.985 110.985 180 108.5 180C106.015 180 104 177.985 104 175.5C104 173.015 106.015 171 108.5 171C110.985 171 113 173.015 113 175.5Z" fill="#1ABC9C"/>
<path d="M102.404 181.92C101.852 181.743 101.239 181.615 100.559 181.55C100.223 181.517 99.87 181.5 99.5 181.5C93.5 181.5 92 186 92 187.5C92 188.5 92.5 189 93.5 189H99.8245C99.6133 188.574 99.5 188.069 99.5 187.5C99.5 185.985 100.066 184.437 101.135 183.144C101.5 182.703 101.924 182.291 102.404 181.92ZM99.3801 183.001C98.4838 184.37 98 185.932 98 187.5H93.5C93.5 187.109 93.7464 185.955 94.6389 184.914C95.457 183.959 96.8787 183.03 99.3801 183.001Z" fill="#1ABC9C"/>
<path d="M94.25 176.25C94.25 173.765 96.2647 171.75 98.75 171.75C101.235 171.75 103.25 173.765 103.25 176.25C103.25 178.735 101.235 180.75 98.75 180.75C96.2647 180.75 94.25 178.735 94.25 176.25ZM98.75 173.25C97.0931 173.25 95.75 174.593 95.75 176.25C95.75 177.907 97.0931 179.25 98.75 179.25C100.407 179.25 101.75 177.907 101.75 176.25C101.75 174.593 100.407 173.25 98.75 173.25Z" fill="#1ABC9C"/>
<path d="M147.668 180.538C148.124 180.61 148.538 180.796 148.91 181.096C149.294 181.396 149.594 181.768 149.81 182.212C150.038 182.656 150.152 183.13 150.152 183.634C150.152 184.27 149.99 184.846 149.666 185.362C149.342 185.866 148.868 186.268 148.244 186.568C147.632 186.856 146.906 187 146.066 187H141.386V174.454H145.886C146.738 174.454 147.464 174.598 148.064 174.886C148.664 175.162 149.114 175.54 149.414 176.02C149.714 176.5 149.864 177.04 149.864 177.64C149.864 178.384 149.66 179.002 149.252 179.494C148.856 179.974 148.328 180.322 147.668 180.538ZM143.024 179.872H145.778C146.546 179.872 147.14 179.692 147.56 179.332C147.98 178.972 148.19 178.474 148.19 177.838C148.19 177.202 147.98 176.704 147.56 176.344C147.14 175.984 146.534 175.804 145.742 175.804H143.024V179.872ZM145.922 185.65C146.738 185.65 147.374 185.458 147.83 185.074C148.286 184.69 148.514 184.156 148.514 183.472C148.514 182.776 148.274 182.23 147.794 181.834C147.314 181.426 146.672 181.222 145.868 181.222H143.024V185.65H145.922ZM154.063 178.738C154.351 178.174 154.759 177.736 155.287 177.424C155.827 177.112 156.481 176.956 157.249 176.956V178.648H156.817C154.981 178.648 154.063 179.644 154.063 181.636V187H152.425V177.136H154.063V178.738ZM163.442 187.162C162.518 187.162 161.678 186.952 160.922 186.532C160.178 186.112 159.59 185.518 159.158 184.75C158.738 183.97 158.528 183.07 158.528 182.05C158.528 181.042 158.744 180.154 159.176 179.386C159.62 178.606 160.22 178.012 160.976 177.604C161.732 177.184 162.578 176.974 163.514 176.974C164.45 176.974 165.296 177.184 166.052 177.604C166.808 178.012 167.402 178.6 167.834 179.368C168.278 180.136 168.5 181.03 168.5 182.05C168.5 183.07 168.272 183.97 167.816 184.75C167.372 185.518 166.766 186.112 165.998 186.532C165.23 186.952 164.378 187.162 163.442 187.162ZM163.442 185.722C164.03 185.722 164.582 185.584 165.098 185.308C165.614 185.032 166.028 184.618 166.34 184.066C166.664 183.514 166.826 182.842 166.826 182.05C166.826 181.258 166.67 180.586 166.358 180.034C166.046 179.482 165.638 179.074 165.134 178.81C164.63 178.534 164.084 178.396 163.496 178.396C162.896 178.396 162.344 178.534 161.84 178.81C161.348 179.074 160.952 179.482 160.652 180.034C160.352 180.586 160.202 181.258 160.202 182.05C160.202 182.854 160.346 183.532 160.634 184.084C160.934 184.636 161.33 185.05 161.822 185.326C162.314 185.59 162.854 185.722 163.442 185.722ZM170.042 182.032C170.042 181.024 170.246 180.142 170.654 179.386C171.062 178.618 171.62 178.024 172.328 177.604C173.048 177.184 173.846 176.974 174.722 176.974C175.586 176.974 176.336 177.16 176.972 177.532C177.608 177.904 178.082 178.372 178.394 178.936V177.136H180.05V187H178.394V185.164C178.07 185.74 177.584 186.22 176.936 186.604C176.3 186.976 175.556 187.162 174.704 187.162C173.828 187.162 173.036 186.946 172.328 186.514C171.62 186.082 171.062 185.476 170.654 184.696C170.246 183.916 170.042 183.028 170.042 182.032ZM178.394 182.05C178.394 181.306 178.244 180.658 177.944 180.106C177.644 179.554 177.236 179.134 176.72 178.846C176.216 178.546 175.658 178.396 175.046 178.396C174.434 178.396 173.876 178.54 173.372 178.828C172.868 179.116 172.466 179.536 172.166 180.088C171.866 180.64 171.716 181.288 171.716 182.032C171.716 182.788 171.866 183.448 172.166 184.012C172.466 184.564 172.868 184.99 173.372 185.29C173.876 185.578 174.434 185.722 175.046 185.722C175.658 185.722 176.216 185.578 176.72 185.29C177.236 184.99 177.644 184.564 177.944 184.012C178.244 183.448 178.394 182.794 178.394 182.05ZM182.206 182.032C182.206 181.024 182.41 180.142 182.818 179.386C183.226 178.618 183.784 178.024 184.492 177.604C185.212 177.184 186.016 176.974 186.904 176.974C187.672 176.974 188.386 177.154 189.046 177.514C189.706 177.862 190.21 178.324 190.558 178.9V173.68H192.214V187H190.558V185.146C190.234 185.734 189.754 186.22 189.118 186.604C188.482 186.976 187.738 187.162 186.886 187.162C186.01 187.162 185.212 186.946 184.492 186.514C183.784 186.082 183.226 185.476 182.818 184.696C182.41 183.916 182.206 183.028 182.206 182.032ZM190.558 182.05C190.558 181.306 190.408 180.658 190.108 180.106C189.808 179.554 189.4 179.134 188.884 178.846C188.38 178.546 187.822 178.396 187.21 178.396C186.598 178.396 186.04 178.54 185.536 178.828C185.032 179.116 184.63 179.536 184.33 180.088C184.03 180.64 183.88 181.288 183.88 182.032C183.88 182.788 184.03 183.448 184.33 184.012C184.63 184.564 185.032 184.99 185.536 185.29C186.04 185.578 186.598 185.722 187.21 185.722C187.822 185.722 188.38 185.578 188.884 185.29C189.4 184.99 189.808 184.564 190.108 184.012C190.408 183.448 190.558 182.794 190.558 182.05ZM199.788 176.956C200.988 176.956 201.96 177.322 202.704 178.054C203.448 178.774 203.82 179.818 203.82 181.186V187H202.2V181.42C202.2 180.436 201.954 179.686 201.462 179.17C200.97 178.642 200.298 178.378 199.446 178.378C198.582 178.378 197.892 178.648 197.376 179.188C196.872 179.728 196.62 180.514 196.62 181.546V187H194.982V177.136H196.62V178.54C196.944 178.036 197.382 177.646 197.934 177.37C198.498 177.094 199.116 176.956 199.788 176.956ZM215.495 181.69C215.495 182.002 215.477 182.332 215.441 182.68H207.557C207.617 183.652 207.947 184.414 208.547 184.966C209.159 185.506 209.897 185.776 210.761 185.776C211.469 185.776 212.057 185.614 212.525 185.29C213.005 184.954 213.341 184.51 213.533 183.958H215.297C215.033 184.906 214.505 185.68 213.713 186.28C212.921 186.868 211.937 187.162 210.761 187.162C209.825 187.162 208.985 186.952 208.241 186.532C207.509 186.112 206.933 185.518 206.513 184.75C206.093 183.97 205.883 183.07 205.883 182.05C205.883 181.03 206.087 180.136 206.495 179.368C206.903 178.6 207.473 178.012 208.205 177.604C208.949 177.184 209.801 176.974 210.761 176.974C211.697 176.974 212.525 177.178 213.245 177.586C213.965 177.994 214.517 178.558 214.901 179.278C215.297 179.986 215.495 180.79 215.495 181.69ZM213.803 181.348C213.803 180.724 213.665 180.19 213.389 179.746C213.113 179.29 212.735 178.948 212.255 178.72C211.787 178.48 211.265 178.36 210.689 178.36C209.861 178.36 209.153 178.624 208.565 179.152C207.989 179.68 207.659 180.412 207.575 181.348H213.803ZM219.655 178.486V184.3C219.655 184.78 219.757 185.122 219.961 185.326C220.165 185.518 220.519 185.614 221.023 185.614H222.229V187H220.753C219.841 187 219.157 186.79 218.701 186.37C218.245 185.95 218.017 185.26 218.017 184.3V178.486H216.739V177.136H218.017V174.652H219.655V177.136H222.229V178.486H219.655Z" fill="black"/>
<path d="M109.249 225.41C108.463 227.002 107.399 228.59 106.309 230.015C105.222 231.436 104.132 232.665 103.312 233.541C103.203 233.657 103.098 233.767 103 233.87C102.902 233.767 102.797 233.657 102.688 233.541C101.868 232.665 100.778 231.436 99.6914 230.015C98.6013 228.59 97.5374 227.002 96.7513 225.41C95.9572 223.801 95.5 222.293 95.5 221C95.5 216.858 98.8579 213.5 103 213.5C107.142 213.5 110.5 216.858 110.5 221C110.5 222.293 110.043 223.801 109.249 225.41ZM103 236C103 236 112 227.471 112 221C112 216.029 107.971 212 103 212C98.0294 212 94 216.029 94 221C94 227.471 103 236 103 236Z" fill="#1ABC9C"/>
<path d="M103 224C101.343 224 100 222.657 100 221C100 219.343 101.343 218 103 218C104.657 218 106 219.343 106 221C106 222.657 104.657 224 103 224ZM103 225.5C105.485 225.5 107.5 223.485 107.5 221C107.5 218.515 105.485 216.5 103 216.5C100.515 216.5 98.5 218.515 98.5 221C98.5 223.485 100.515 225.5 103 225.5Z" fill="#1ABC9C"/>
<path d="M150.754 219.454L146.02 232H144.13L139.396 219.454H141.142L145.084 230.272L149.026 219.454H150.754ZM161.55 226.69C161.55 227.002 161.532 227.332 161.496 227.68H153.612C153.672 228.652 154.002 229.414 154.602 229.966C155.214 230.506 155.952 230.776 156.816 230.776C157.524 230.776 158.112 230.614 158.58 230.29C159.06 229.954 159.396 229.51 159.588 228.958H161.352C161.088 229.906 160.56 230.68 159.768 231.28C158.976 231.868 157.992 232.162 156.816 232.162C155.88 232.162 155.04 231.952 154.296 231.532C153.564 231.112 152.988 230.518 152.568 229.75C152.148 228.97 151.938 228.07 151.938 227.05C151.938 226.03 152.142 225.136 152.55 224.368C152.958 223.6 153.528 223.012 154.26 222.604C155.004 222.184 155.856 221.974 156.816 221.974C157.752 221.974 158.58 222.178 159.3 222.586C160.02 222.994 160.572 223.558 160.956 224.278C161.352 224.986 161.55 225.79 161.55 226.69ZM159.858 226.348C159.858 225.724 159.72 225.19 159.444 224.746C159.168 224.29 158.79 223.948 158.31 223.72C157.842 223.48 157.32 223.36 156.744 223.36C155.916 223.36 155.208 223.624 154.62 224.152C154.044 224.68 153.714 225.412 153.63 226.348H159.858ZM167.204 232.162C166.448 232.162 165.77 232.036 165.17 231.784C164.57 231.52 164.096 231.16 163.748 230.704C163.4 230.236 163.208 229.702 163.172 229.102H164.864C164.912 229.594 165.14 229.996 165.548 230.308C165.968 230.62 166.514 230.776 167.186 230.776C167.81 230.776 168.302 230.638 168.662 230.362C169.022 230.086 169.202 229.738 169.202 229.318C169.202 228.886 169.01 228.568 168.626 228.364C168.242 228.148 167.648 227.938 166.844 227.734C166.112 227.542 165.512 227.35 165.044 227.158C164.588 226.954 164.192 226.66 163.856 226.276C163.532 225.88 163.37 225.364 163.37 224.728C163.37 224.224 163.52 223.762 163.82 223.342C164.12 222.922 164.546 222.592 165.098 222.352C165.65 222.1 166.28 221.974 166.988 221.974C168.08 221.974 168.962 222.25 169.634 222.802C170.306 223.354 170.666 224.11 170.714 225.07H169.076C169.04 224.554 168.83 224.14 168.446 223.828C168.074 223.516 167.57 223.36 166.934 223.36C166.346 223.36 165.878 223.486 165.53 223.738C165.182 223.99 165.008 224.32 165.008 224.728C165.008 225.052 165.11 225.322 165.314 225.538C165.53 225.742 165.794 225.91 166.106 226.042C166.43 226.162 166.874 226.3 167.438 226.456C168.146 226.648 168.722 226.84 169.166 227.032C169.61 227.212 169.988 227.488 170.3 227.86C170.624 228.232 170.792 228.718 170.804 229.318C170.804 229.858 170.654 230.344 170.354 230.776C170.054 231.208 169.628 231.55 169.076 231.802C168.536 232.042 167.912 232.162 167.204 232.162ZM175.114 223.486V229.3C175.114 229.78 175.216 230.122 175.42 230.326C175.624 230.518 175.978 230.614 176.482 230.614H177.688V232H176.212C175.3 232 174.616 231.79 174.16 231.37C173.704 230.95 173.476 230.26 173.476 229.3V223.486H172.198V222.136H173.476V219.652H175.114V222.136H177.688V223.486H175.114ZM183.687 223.486H181.617V232H179.979V223.486H178.701V222.136H179.979V221.434C179.979 220.33 180.261 219.526 180.825 219.022C181.401 218.506 182.319 218.248 183.579 218.248V219.616C182.859 219.616 182.349 219.76 182.049 220.048C181.761 220.324 181.617 220.786 181.617 221.434V222.136H183.687V223.486ZM189.899 232.162C188.975 232.162 188.135 231.952 187.379 231.532C186.635 231.112 186.047 230.518 185.615 229.75C185.195 228.97 184.985 228.07 184.985 227.05C184.985 226.042 185.201 225.154 185.633 224.386C186.077 223.606 186.677 223.012 187.433 222.604C188.189 222.184 189.035 221.974 189.971 221.974C190.907 221.974 191.753 222.184 192.509 222.604C193.265 223.012 193.859 223.6 194.291 224.368C194.735 225.136 194.957 226.03 194.957 227.05C194.957 228.07 194.729 228.97 194.273 229.75C193.829 230.518 193.223 231.112 192.455 231.532C191.687 231.952 190.835 232.162 189.899 232.162ZM189.899 230.722C190.487 230.722 191.039 230.584 191.555 230.308C192.071 230.032 192.485 229.618 192.797 229.066C193.121 228.514 193.283 227.842 193.283 227.05C193.283 226.258 193.127 225.586 192.815 225.034C192.503 224.482 192.095 224.074 191.591 223.81C191.087 223.534 190.541 223.396 189.953 223.396C189.353 223.396 188.801 223.534 188.297 223.81C187.805 224.074 187.409 224.482 187.109 225.034C186.809 225.586 186.659 226.258 186.659 227.05C186.659 227.854 186.803 228.532 187.091 229.084C187.391 229.636 187.787 230.05 188.279 230.326C188.771 230.59 189.311 230.722 189.899 230.722ZM198.749 218.68V232H197.111V218.68H198.749ZM200.928 227.032C200.928 226.024 201.132 225.142 201.54 224.386C201.948 223.618 202.506 223.024 203.214 222.604C203.934 222.184 204.738 221.974 205.626 221.974C206.394 221.974 207.108 222.154 207.768 222.514C208.428 222.862 208.932 223.324 209.28 223.9V218.68H210.936V232H209.28V230.146C208.956 230.734 208.476 231.22 207.84 231.604C207.204 231.976 206.46 232.162 205.608 232.162C204.732 232.162 203.934 231.946 203.214 231.514C202.506 231.082 201.948 230.476 201.54 229.696C201.132 228.916 200.928 228.028 200.928 227.032ZM209.28 227.05C209.28 226.306 209.13 225.658 208.83 225.106C208.53 224.554 208.122 224.134 207.606 223.846C207.102 223.546 206.544 223.396 205.932 223.396C205.32 223.396 204.762 223.54 204.258 223.828C203.754 224.116 203.352 224.536 203.052 225.088C202.752 225.64 202.602 226.288 202.602 227.032C202.602 227.788 202.752 228.448 203.052 229.012C203.352 229.564 203.754 229.99 204.258 230.29C204.762 230.578 205.32 230.722 205.932 230.722C206.544 230.722 207.102 230.578 207.606 230.29C208.122 229.99 208.53 229.564 208.83 229.012C209.13 228.448 209.28 227.794 209.28 227.05ZM222.805 232.162C221.881 232.162 221.041 231.952 220.285 231.532C219.541 231.112 218.953 230.518 218.521 229.75C218.101 228.97 217.891 228.07 217.891 227.05C217.891 226.042 218.107 225.154 218.539 224.386C218.983 223.606 219.583 223.012 220.339 222.604C221.095 222.184 221.941 221.974 222.877 221.974C223.813 221.974 224.659 222.184 225.415 222.604C226.171 223.012 226.765 223.6 227.197 224.368C227.641 225.136 227.863 226.03 227.863 227.05C227.863 228.07 227.635 228.97 227.179 229.75C226.735 230.518 226.129 231.112 225.361 231.532C224.593 231.952 223.741 232.162 222.805 232.162ZM222.805 230.722C223.393 230.722 223.945 230.584 224.461 230.308C224.977 230.032 225.391 229.618 225.703 229.066C226.027 228.514 226.189 227.842 226.189 227.05C226.189 226.258 226.033 225.586 225.721 225.034C225.409 224.482 225.001 224.074 224.497 223.81C223.993 223.534 223.447 223.396 222.859 223.396C222.259 223.396 221.707 223.534 221.203 223.81C220.711 224.074 220.315 224.482 220.015 225.034C219.715 225.586 219.565 226.258 219.565 227.05C219.565 227.854 219.709 228.532 219.997 229.084C220.297 229.636 220.693 230.05 221.185 230.326C221.677 230.59 222.217 230.722 222.805 230.722ZM234.085 221.974C234.937 221.974 235.681 222.16 236.317 222.532C236.965 222.904 237.445 223.372 237.757 223.936V222.136H239.413V232.216C239.413 233.116 239.221 233.914 238.837 234.61C238.453 235.318 237.901 235.87 237.181 236.266C236.473 236.662 235.645 236.86 234.697 236.86C233.401 236.86 232.321 236.554 231.457 235.942C230.593 235.33 230.083 234.496 229.927 233.44H231.547C231.727 234.04 232.099 234.52 232.663 234.88C233.227 235.252 233.905 235.438 234.697 235.438C235.597 235.438 236.329 235.156 236.893 234.592C237.469 234.028 237.757 233.236 237.757 232.216V230.146C237.433 230.722 236.953 231.202 236.317 231.586C235.681 231.97 234.937 232.162 234.085 232.162C233.209 232.162 232.411 231.946 231.691 231.514C230.983 231.082 230.425 230.476 230.017 229.696C229.609 228.916 229.405 228.028 229.405 227.032C229.405 226.024 229.609 225.142 230.017 224.386C230.425 223.618 230.983 223.024 231.691 222.604C232.411 222.184 233.209 221.974 234.085 221.974ZM237.757 227.05C237.757 226.306 237.607 225.658 237.307 225.106C237.007 224.554 236.599 224.134 236.083 223.846C235.579 223.546 235.021 223.396 234.409 223.396C233.797 223.396 233.239 223.54 232.735 223.828C232.231 224.116 231.829 224.536 231.529 225.088C231.229 225.64 231.079 226.288 231.079 227.032C231.079 227.788 231.229 228.448 231.529 229.012C231.829 229.564 232.231 229.99 232.735 230.29C233.239 230.578 233.797 230.722 234.409 230.722C235.021 230.722 235.579 230.578 236.083 230.29C236.599 229.99 237.007 229.564 237.307 229.012C237.607 228.448 237.757 227.794 237.757 227.05ZM254.702 219.454V220.786H251.282V232H249.644V220.786H246.206V219.454H254.702ZM265.718 226.69C265.718 227.002 265.7 227.332 265.664 227.68H257.78C257.84 228.652 258.17 229.414 258.77 229.966C259.382 230.506 260.12 230.776 260.984 230.776C261.692 230.776 262.28 230.614 262.748 230.29C263.228 229.954 263.564 229.51 263.756 228.958H265.52C265.256 229.906 264.728 230.68 263.936 231.28C263.144 231.868 262.16 232.162 260.984 232.162C260.048 232.162 259.208 231.952 258.464 231.532C257.732 231.112 257.156 230.518 256.736 229.75C256.316 228.97 256.106 228.07 256.106 227.05C256.106 226.03 256.31 225.136 256.718 224.368C257.126 223.6 257.696 223.012 258.428 222.604C259.172 222.184 260.024 221.974 260.984 221.974C261.92 221.974 262.748 222.178 263.468 222.586C264.188 222.994 264.74 223.558 265.124 224.278C265.52 224.986 265.718 225.79 265.718 226.69ZM264.026 226.348C264.026 225.724 263.888 225.19 263.612 224.746C263.336 224.29 262.958 223.948 262.478 223.72C262.01 223.48 261.488 223.36 260.912 223.36C260.084 223.36 259.376 223.624 258.788 224.152C258.212 224.68 257.882 225.412 257.798 226.348H264.026ZM269.518 218.68V232H267.88V218.68H269.518ZM281.31 226.69C281.31 227.002 281.292 227.332 281.256 227.68H273.372C273.432 228.652 273.762 229.414 274.362 229.966C274.974 230.506 275.712 230.776 276.576 230.776C277.284 230.776 277.872 230.614 278.34 230.29C278.82 229.954 279.156 229.51 279.348 228.958H281.112C280.848 229.906 280.32 230.68 279.528 231.28C278.736 231.868 277.752 232.162 276.576 232.162C275.64 232.162 274.8 231.952 274.056 231.532C273.324 231.112 272.748 230.518 272.328 229.75C271.908 228.97 271.698 228.07 271.698 227.05C271.698 226.03 271.902 225.136 272.31 224.368C272.718 223.6 273.288 223.012 274.02 222.604C274.764 222.184 275.616 221.974 276.576 221.974C277.512 221.974 278.34 222.178 279.06 222.586C279.78 222.994 280.332 223.558 280.716 224.278C281.112 224.986 281.31 225.79 281.31 226.69ZM279.618 226.348C279.618 225.724 279.48 225.19 279.204 224.746C278.928 224.29 278.55 223.948 278.07 223.72C277.602 223.48 277.08 223.36 276.504 223.36C275.676 223.36 274.968 223.624 274.38 224.152C273.804 224.68 273.474 225.412 273.39 226.348H279.618ZM295.334 221.956C296.102 221.956 296.786 222.118 297.386 222.442C297.986 222.754 298.46 223.228 298.808 223.864C299.156 224.5 299.33 225.274 299.33 226.186V232H297.71V226.42C297.71 225.436 297.464 224.686 296.972 224.17C296.492 223.642 295.838 223.378 295.01 223.378C294.158 223.378 293.48 223.654 292.976 224.206C292.472 224.746 292.22 225.532 292.22 226.564V232H290.6V226.42C290.6 225.436 290.354 224.686 289.862 224.17C289.382 223.642 288.728 223.378 287.9 223.378C287.048 223.378 286.37 223.654 285.866 224.206C285.362 224.746 285.11 225.532 285.11 226.564V232H283.472V222.136H285.11V223.558C285.434 223.042 285.866 222.646 286.406 222.37C286.958 222.094 287.564 221.956 288.224 221.956C289.052 221.956 289.784 222.142 290.42 222.514C291.056 222.886 291.53 223.432 291.842 224.152C292.118 223.456 292.574 222.916 293.21 222.532C293.846 222.148 294.554 221.956 295.334 221.956ZM301.405 227.032C301.405 226.024 301.609 225.142 302.017 224.386C302.425 223.618 302.983 223.024 303.691 222.604C304.411 222.184 305.209 221.974 306.085 221.974C306.949 221.974 307.699 222.16 308.335 222.532C308.971 222.904 309.445 223.372 309.757 223.936V222.136H311.413V232H309.757V230.164C309.433 230.74 308.947 231.22 308.299 231.604C307.663 231.976 306.919 232.162 306.067 232.162C305.191 232.162 304.399 231.946 303.691 231.514C302.983 231.082 302.425 230.476 302.017 229.696C301.609 228.916 301.405 228.028 301.405 227.032ZM309.757 227.05C309.757 226.306 309.607 225.658 309.307 225.106C309.007 224.554 308.599 224.134 308.083 223.846C307.579 223.546 307.021 223.396 306.409 223.396C305.797 223.396 305.239 223.54 304.735 223.828C304.231 224.116 303.829 224.536 303.529 225.088C303.229 225.64 303.079 226.288 303.079 227.032C303.079 227.788 303.229 228.448 303.529 229.012C303.829 229.564 304.231 229.99 304.735 230.29C305.239 230.578 305.797 230.722 306.409 230.722C307.021 230.722 307.579 230.578 308.083 230.29C308.599 229.99 309.007 229.564 309.307 229.012C309.607 228.448 309.757 227.794 309.757 227.05ZM315.819 223.738C316.107 223.174 316.515 222.736 317.043 222.424C317.583 222.112 318.237 221.956 319.005 221.956V223.648H318.573C316.737 223.648 315.819 224.644 315.819 226.636V232H314.181V222.136H315.819V223.738ZM326.404 232L322.534 227.644V232H320.896V218.68H322.534V226.51L326.332 222.136H328.618L323.974 227.05L328.636 232H326.404Z" fill="black"/>
<path d="M143.024 263.786V267.98H147.596V269.33H143.024V273.65H148.136V275H141.386V262.436H148.136V263.786H143.024ZM159.363 265.136V275H157.725V273.542C157.413 274.046 156.975 274.442 156.411 274.73C155.859 275.006 155.247 275.144 154.575 275.144C153.807 275.144 153.117 274.988 152.505 274.676C151.893 274.352 151.407 273.872 151.047 273.236C150.699 272.6 150.525 271.826 150.525 270.914V265.136H152.145V270.698C152.145 271.67 152.391 272.42 152.883 272.948C153.375 273.464 154.047 273.722 154.899 273.722C155.775 273.722 156.465 273.452 156.969 272.912C157.473 272.372 157.725 271.586 157.725 270.554V265.136H159.363ZM163.766 266.738C164.054 266.174 164.462 265.736 164.99 265.424C165.53 265.112 166.184 264.956 166.952 264.956V266.648H166.52C164.684 266.648 163.766 267.644 163.766 269.636V275H162.128V265.136H163.766V266.738ZM173.145 275.162C172.221 275.162 171.381 274.952 170.625 274.532C169.881 274.112 169.293 273.518 168.861 272.75C168.441 271.97 168.231 271.07 168.231 270.05C168.231 269.042 168.447 268.154 168.879 267.386C169.323 266.606 169.923 266.012 170.679 265.604C171.435 265.184 172.281 264.974 173.217 264.974C174.153 264.974 174.999 265.184 175.755 265.604C176.511 266.012 177.105 266.6 177.537 267.368C177.981 268.136 178.203 269.03 178.203 270.05C178.203 271.07 177.975 271.97 177.519 272.75C177.075 273.518 176.469 274.112 175.701 274.532C174.933 274.952 174.081 275.162 173.145 275.162ZM173.145 273.722C173.733 273.722 174.285 273.584 174.801 273.308C175.317 273.032 175.731 272.618 176.043 272.066C176.367 271.514 176.529 270.842 176.529 270.05C176.529 269.258 176.373 268.586 176.061 268.034C175.749 267.482 175.341 267.074 174.837 266.81C174.333 266.534 173.787 266.396 173.199 266.396C172.599 266.396 172.047 266.534 171.543 266.81C171.051 267.074 170.655 267.482 170.355 268.034C170.055 268.586 169.905 269.258 169.905 270.05C169.905 270.854 170.049 271.532 170.337 272.084C170.637 272.636 171.033 273.05 171.525 273.326C172.017 273.59 172.557 273.722 173.145 273.722ZM181.995 266.954C182.319 266.39 182.799 265.922 183.435 265.55C184.083 265.166 184.833 264.974 185.685 264.974C186.561 264.974 187.353 265.184 188.061 265.604C188.781 266.024 189.345 266.618 189.753 267.386C190.161 268.142 190.365 269.024 190.365 270.032C190.365 271.028 190.161 271.916 189.753 272.696C189.345 273.476 188.781 274.082 188.061 274.514C187.353 274.946 186.561 275.162 185.685 275.162C184.845 275.162 184.101 274.976 183.453 274.604C182.817 274.22 182.331 273.746 181.995 273.182V279.68H180.357V265.136H181.995V266.954ZM188.691 270.032C188.691 269.288 188.541 268.64 188.241 268.088C187.941 267.536 187.533 267.116 187.017 266.828C186.513 266.54 185.955 266.396 185.343 266.396C184.743 266.396 184.185 266.546 183.669 266.846C183.165 267.134 182.757 267.56 182.445 268.124C182.145 268.676 181.995 269.318 181.995 270.05C181.995 270.794 182.145 271.448 182.445 272.012C182.757 272.564 183.165 272.99 183.669 273.29C184.185 273.578 184.743 273.722 185.343 273.722C185.955 273.722 186.513 273.578 187.017 273.29C187.533 272.99 187.941 272.564 188.241 272.012C188.541 271.448 188.691 270.788 188.691 270.032ZM201.521 269.69C201.521 270.002 201.503 270.332 201.467 270.68H193.583C193.643 271.652 193.973 272.414 194.573 272.966C195.185 273.506 195.923 273.776 196.787 273.776C197.495 273.776 198.083 273.614 198.551 273.29C199.031 272.954 199.367 272.51 199.559 271.958H201.323C201.059 272.906 200.531 273.68 199.739 274.28C198.947 274.868 197.963 275.162 196.787 275.162C195.851 275.162 195.011 274.952 194.267 274.532C193.535 274.112 192.959 273.518 192.539 272.75C192.119 271.97 191.909 271.07 191.909 270.05C191.909 269.03 192.113 268.136 192.521 267.368C192.929 266.6 193.499 266.012 194.231 265.604C194.975 265.184 195.827 264.974 196.787 264.974C197.723 264.974 198.551 265.178 199.271 265.586C199.991 265.994 200.543 266.558 200.927 267.278C201.323 267.986 201.521 268.79 201.521 269.69ZM199.829 269.348C199.829 268.724 199.691 268.19 199.415 267.746C199.139 267.29 198.761 266.948 198.281 266.72C197.813 266.48 197.291 266.36 196.715 266.36C195.887 266.36 195.179 266.624 194.591 267.152C194.015 267.68 193.685 268.412 193.601 269.348H199.829ZM209.803 258.044L204.871 278.06H203.251L208.165 258.044H209.803ZM217.931 275.126C216.767 275.126 215.705 274.856 214.745 274.316C213.785 273.764 213.023 273.002 212.459 272.03C211.907 271.046 211.631 269.942 211.631 268.718C211.631 267.494 211.907 266.396 212.459 265.424C213.023 264.44 213.785 263.678 214.745 263.138C215.705 262.586 216.767 262.31 217.931 262.31C219.107 262.31 220.175 262.586 221.135 263.138C222.095 263.678 222.851 264.434 223.403 265.406C223.955 266.378 224.231 267.482 224.231 268.718C224.231 269.954 223.955 271.058 223.403 272.03C222.851 273.002 222.095 273.764 221.135 274.316C220.175 274.856 219.107 275.126 217.931 275.126ZM217.931 273.704C218.807 273.704 219.593 273.5 220.289 273.092C220.997 272.684 221.549 272.102 221.945 271.346C222.353 270.59 222.557 269.714 222.557 268.718C222.557 267.71 222.353 266.834 221.945 266.09C221.549 265.334 221.003 264.752 220.307 264.344C219.611 263.936 218.819 263.732 217.931 263.732C217.043 263.732 216.251 263.936 215.555 264.344C214.859 264.752 214.307 265.334 213.899 266.09C213.503 266.834 213.305 267.71 213.305 268.718C213.305 269.714 213.503 270.59 213.899 271.346C214.307 272.102 214.859 272.684 215.555 273.092C216.263 273.5 217.055 273.704 217.931 273.704ZM229.886 275.162C229.13 275.162 228.452 275.036 227.852 274.784C227.252 274.52 226.778 274.16 226.43 273.704C226.082 273.236 225.89 272.702 225.854 272.102H227.546C227.594 272.594 227.822 272.996 228.23 273.308C228.65 273.62 229.196 273.776 229.868 273.776C230.492 273.776 230.984 273.638 231.344 273.362C231.704 273.086 231.884 272.738 231.884 272.318C231.884 271.886 231.692 271.568 231.308 271.364C230.924 271.148 230.33 270.938 229.526 270.734C228.794 270.542 228.194 270.35 227.726 270.158C227.27 269.954 226.874 269.66 226.538 269.276C226.214 268.88 226.052 268.364 226.052 267.728C226.052 267.224 226.202 266.762 226.502 266.342C226.802 265.922 227.228 265.592 227.78 265.352C228.332 265.1 228.962 264.974 229.67 264.974C230.762 264.974 231.644 265.25 232.316 265.802C232.988 266.354 233.348 267.11 233.396 268.07H231.758C231.722 267.554 231.512 267.14 231.128 266.828C230.756 266.516 230.252 266.36 229.616 266.36C229.028 266.36 228.56 266.486 228.212 266.738C227.864 266.99 227.69 267.32 227.69 267.728C227.69 268.052 227.792 268.322 227.996 268.538C228.212 268.742 228.476 268.91 228.788 269.042C229.112 269.162 229.556 269.3 230.12 269.456C230.828 269.648 231.404 269.84 231.848 270.032C232.292 270.212 232.67 270.488 232.982 270.86C233.306 271.232 233.474 271.718 233.486 272.318C233.486 272.858 233.336 273.344 233.036 273.776C232.736 274.208 232.31 274.55 231.758 274.802C231.218 275.042 230.594 275.162 229.886 275.162ZM237.436 261.68V275H235.798V261.68H237.436ZM244.53 275.162C243.606 275.162 242.766 274.952 242.01 274.532C241.266 274.112 240.678 273.518 240.246 272.75C239.826 271.97 239.616 271.07 239.616 270.05C239.616 269.042 239.832 268.154 240.264 267.386C240.708 266.606 241.308 266.012 242.064 265.604C242.82 265.184 243.666 264.974 244.602 264.974C245.538 264.974 246.384 265.184 247.14 265.604C247.896 266.012 248.49 266.6 248.922 267.368C249.366 268.136 249.588 269.03 249.588 270.05C249.588 271.07 249.36 271.97 248.904 272.75C248.46 273.518 247.854 274.112 247.086 274.532C246.318 274.952 245.466 275.162 244.53 275.162ZM244.53 273.722C245.118 273.722 245.67 273.584 246.186 273.308C246.702 273.032 247.116 272.618 247.428 272.066C247.752 271.514 247.914 270.842 247.914 270.05C247.914 269.258 247.758 268.586 247.446 268.034C247.134 267.482 246.726 267.074 246.222 266.81C245.718 266.534 245.172 266.396 244.584 266.396C243.984 266.396 243.432 266.534 242.928 266.81C242.436 267.074 242.04 267.482 241.74 268.034C241.44 268.586 241.29 269.258 241.29 270.05C241.29 270.854 241.434 271.532 241.722 272.084C242.022 272.636 242.418 273.05 242.91 273.326C243.402 273.59 243.942 273.722 244.53 273.722Z" fill="black"/>
<path d="M104.75 264.25C104.75 263.836 104.414 263.5 104 263.5C103.586 263.5 103.25 263.836 103.25 264.25V269.292L101.107 272.864C100.894 273.219 101.009 273.68 101.364 273.893C101.719 274.106 102.18 273.991 102.393 273.636L104.643 269.886C104.713 269.769 104.75 269.636 104.75 269.5V264.25Z" fill="#1ABC9C"/>
<path d="M101.75 256C101.336 256 101 256.336 101 256.75C101 257.164 101.336 257.5 101.75 257.5H102.5V259.106C97.4112 259.835 93.5 264.21 93.5 269.5C93.5 272.886 95.1034 275.898 97.5898 277.817L96.6869 278.72C96.394 279.013 96.394 279.487 96.6869 279.78C96.9798 280.073 97.4547 280.073 97.7476 279.78L98.8664 278.661C100.385 279.514 102.137 280 104 280C105.863 280 107.615 279.514 109.134 278.661L110.252 279.78C110.545 280.073 111.02 280.073 111.313 279.78C111.606 279.487 111.606 279.013 111.313 278.72L110.41 277.817C112.897 275.898 114.5 272.886 114.5 269.5C114.5 264.21 110.589 259.835 105.5 259.106V257.5H106.25C106.664 257.5 107 257.164 107 256.75C107 256.336 106.664 256 106.25 256H101.75ZM103.307 260.526C103.536 260.509 103.767 260.5 104 260.5C104.233 260.5 104.464 260.509 104.693 260.526C109.339 260.88 113 264.763 113 269.5C113 272.685 111.346 275.485 108.846 277.086C107.447 277.981 105.785 278.5 104 278.5C102.215 278.5 100.553 277.981 99.1544 277.086C96.6544 275.485 95 272.685 95 269.5C95 264.763 98.6606 260.88 103.307 260.526Z" fill="#1ABC9C"/>
<path d="M92 261.25C92 262.38 92.4998 263.393 93.2905 264.081C94.4449 261.804 96.304 259.945 98.5808 258.79C97.8933 258 96.88 257.5 95.75 257.5C93.6789 257.5 92 259.179 92 261.25Z" fill="#1ABC9C"/>
<path d="M112.25 257.5C111.12 257.5 110.107 258 109.419 258.79C111.696 259.945 113.555 261.804 114.71 264.081C115.5 263.393 116 262.38 116 261.25C116 259.179 114.321 257.5 112.25 257.5Z" fill="#1ABC9C"/>
<path d="M103.232 25.436L98.984 33.626V38H96.464V33.626L92.198 25.436H95.042L97.742 31.178L100.424 25.436H103.232ZM109.113 38.162C108.153 38.162 107.289 37.952 106.521 37.532C105.753 37.1 105.147 36.494 104.703 35.714C104.271 34.934 104.055 34.034 104.055 33.014C104.055 31.994 104.277 31.094 104.721 30.314C105.177 29.534 105.795 28.934 106.575 28.514C107.355 28.082 108.225 27.866 109.185 27.866C110.145 27.866 111.015 28.082 111.795 28.514C112.575 28.934 113.187 29.534 113.631 30.314C114.087 31.094 114.315 31.994 114.315 33.014C114.315 34.034 114.081 34.934 113.613 35.714C113.157 36.494 112.533 37.1 111.741 37.532C110.961 37.952 110.085 38.162 109.113 38.162ZM109.113 35.966C109.569 35.966 109.995 35.858 110.391 35.642C110.799 35.414 111.123 35.078 111.363 34.634C111.603 34.19 111.723 33.65 111.723 33.014C111.723 32.066 111.471 31.34 110.967 30.836C110.475 30.32 109.869 30.062 109.149 30.062C108.429 30.062 107.823 30.32 107.331 30.836C106.851 31.34 106.611 32.066 106.611 33.014C106.611 33.962 106.845 34.694 107.313 35.21C107.793 35.714 108.393 35.966 109.113 35.966ZM125.578 28.028V38H123.04V36.74C122.716 37.172 122.29 37.514 121.762 37.766C121.246 38.006 120.682 38.126 120.07 38.126C119.29 38.126 118.6 37.964 118 37.64C117.4 37.304 116.926 36.818 116.578 36.182C116.242 35.534 116.074 34.766 116.074 33.878V28.028H118.594V33.518C118.594 34.31 118.792 34.922 119.188 35.354C119.584 35.774 120.124 35.984 120.808 35.984C121.504 35.984 122.05 35.774 122.446 35.354C122.842 34.922 123.04 34.31 123.04 33.518V28.028H125.578ZM131.705 32.978C131.705 31.97 131.903 31.076 132.299 30.296C132.707 29.516 133.253 28.916 133.937 28.496C134.633 28.076 135.407 27.866 136.259 27.866C137.003 27.866 137.651 28.016 138.203 28.316C138.767 28.616 139.217 28.994 139.553 29.45V28.028H142.091V38H139.553V36.542C139.229 37.01 138.779 37.4 138.203 37.712C137.639 38.012 136.985 38.162 136.241 38.162C135.401 38.162 134.633 37.946 133.937 37.514C133.253 37.082 132.707 36.476 132.299 35.696C131.903 34.904 131.705 33.998 131.705 32.978ZM139.553 33.014C139.553 32.402 139.433 31.88 139.193 31.448C138.953 31.004 138.629 30.668 138.221 30.44C137.813 30.2 137.375 30.08 136.907 30.08C136.439 30.08 136.007 30.194 135.611 30.422C135.215 30.65 134.891 30.986 134.639 31.43C134.399 31.862 134.279 32.378 134.279 32.978C134.279 33.578 134.399 34.106 134.639 34.562C134.891 35.006 135.215 35.348 135.611 35.588C136.019 35.828 136.451 35.948 136.907 35.948C137.375 35.948 137.813 35.834 138.221 35.606C138.629 35.366 138.953 35.03 139.193 34.598C139.433 34.154 139.553 33.626 139.553 33.014ZM147.073 29.576C147.397 29.048 147.817 28.634 148.333 28.334C148.861 28.034 149.461 27.884 150.133 27.884V30.53H149.467C148.675 30.53 148.075 30.716 147.667 31.088C147.271 31.46 147.073 32.108 147.073 33.032V38H144.553V28.028H147.073V29.576ZM161.1 32.798C161.1 33.158 161.076 33.482 161.028 33.77H153.738C153.798 34.49 154.05 35.054 154.494 35.462C154.938 35.87 155.484 36.074 156.132 36.074C157.068 36.074 157.734 35.672 158.13 34.868H160.848C160.56 35.828 160.008 36.62 159.192 37.244C158.376 37.856 157.374 38.162 156.186 38.162C155.226 38.162 154.362 37.952 153.594 37.532C152.838 37.1 152.244 36.494 151.812 35.714C151.392 34.934 151.182 34.034 151.182 33.014C151.182 31.982 151.392 31.076 151.812 30.296C152.232 29.516 152.82 28.916 153.576 28.496C154.332 28.076 155.202 27.866 156.186 27.866C157.134 27.866 157.98 28.07 158.724 28.478C159.48 28.886 160.062 29.468 160.47 30.224C160.89 30.968 161.1 31.826 161.1 32.798ZM158.49 32.078C158.478 31.43 158.244 30.914 157.788 30.53C157.332 30.134 156.774 29.936 156.114 29.936C155.49 29.936 154.962 30.128 154.53 30.512C154.11 30.884 153.852 31.406 153.756 32.078H158.49Z" fill="#5F6569"/>
<path d="M166.58 33.014C166.58 31.982 166.79 31.082 167.21 30.314C167.63 29.534 168.212 28.934 168.956 28.514C169.7 28.082 170.552 27.866 171.512 27.866C172.748 27.866 173.768 28.178 174.572 28.802C175.388 29.414 175.934 30.278 176.21 31.394H173.492C173.348 30.962 173.102 30.626 172.754 30.386C172.418 30.134 171.998 30.008 171.494 30.008C170.774 30.008 170.204 30.272 169.784 30.8C169.364 31.316 169.154 32.054 169.154 33.014C169.154 33.962 169.364 34.7 169.784 35.228C170.204 35.744 170.774 36.002 171.494 36.002C172.514 36.002 173.18 35.546 173.492 34.634H176.21C175.934 35.714 175.388 36.572 174.572 37.208C173.756 37.844 172.736 38.162 171.512 38.162C170.552 38.162 169.7 37.952 168.956 37.532C168.212 37.1 167.63 36.5 167.21 35.732C166.79 34.952 166.58 34.046 166.58 33.014ZM182.484 38.162C181.524 38.162 180.66 37.952 179.892 37.532C179.124 37.1 178.518 36.494 178.074 35.714C177.642 34.934 177.426 34.034 177.426 33.014C177.426 31.994 177.648 31.094 178.092 30.314C178.548 29.534 179.166 28.934 179.946 28.514C180.726 28.082 181.596 27.866 182.556 27.866C183.516 27.866 184.386 28.082 185.166 28.514C185.946 28.934 186.558 29.534 187.002 30.314C187.458 31.094 187.686 31.994 187.686 33.014C187.686 34.034 187.452 34.934 186.984 35.714C186.528 36.494 185.904 37.1 185.112 37.532C184.332 37.952 183.456 38.162 182.484 38.162ZM182.484 35.966C182.94 35.966 183.366 35.858 183.762 35.642C184.17 35.414 184.494 35.078 184.734 34.634C184.974 34.19 185.094 33.65 185.094 33.014C185.094 32.066 184.842 31.34 184.338 30.836C183.846 30.32 183.24 30.062 182.52 30.062C181.8 30.062 181.194 30.32 180.702 30.836C180.222 31.34 179.982 32.066 179.982 33.014C179.982 33.962 180.216 34.694 180.684 35.21C181.164 35.714 181.764 35.966 182.484 35.966ZM195.061 27.884C196.249 27.884 197.209 28.262 197.941 29.018C198.673 29.762 199.039 30.806 199.039 32.15V38H196.519V32.492C196.519 31.7 196.321 31.094 195.925 30.674C195.529 30.242 194.989 30.026 194.305 30.026C193.609 30.026 193.057 30.242 192.649 30.674C192.253 31.094 192.055 31.7 192.055 32.492V38H189.535V28.028H192.055V29.27C192.391 28.838 192.817 28.502 193.333 28.262C193.861 28.01 194.437 27.884 195.061 27.884ZM206.961 27.884C208.149 27.884 209.109 28.262 209.841 29.018C210.573 29.762 210.939 30.806 210.939 32.15V38H208.419V32.492C208.419 31.7 208.221 31.094 207.825 30.674C207.429 30.242 206.889 30.026 206.205 30.026C205.509 30.026 204.957 30.242 204.549 30.674C204.153 31.094 203.955 31.7 203.955 32.492V38H201.435V28.028H203.955V29.27C204.291 28.838 204.717 28.502 205.233 28.262C205.761 28.01 206.337 27.884 206.961 27.884ZM222.606 32.798C222.606 33.158 222.582 33.482 222.534 33.77H215.244C215.304 34.49 215.556 35.054 216 35.462C216.444 35.87 216.99 36.074 217.638 36.074C218.574 36.074 219.24 35.672 219.636 34.868H222.354C222.066 35.828 221.514 36.62 220.698 37.244C219.882 37.856 218.88 38.162 217.692 38.162C216.732 38.162 215.868 37.952 215.1 37.532C214.344 37.1 213.75 36.494 213.318 35.714C212.898 34.934 212.688 34.034 212.688 33.014C212.688 31.982 212.898 31.076 213.318 30.296C213.738 29.516 214.326 28.916 215.082 28.496C215.838 28.076 216.708 27.866 217.692 27.866C218.64 27.866 219.486 28.07 220.23 28.478C220.986 28.886 221.568 29.468 221.976 30.224C222.396 30.968 222.606 31.826 222.606 32.798ZM219.996 32.078C219.984 31.43 219.75 30.914 219.294 30.53C218.838 30.134 218.28 29.936 217.62 29.936C216.996 29.936 216.468 30.128 216.036 30.512C215.616 30.884 215.358 31.406 215.262 32.078H219.996ZM223.797 33.014C223.797 31.982 224.007 31.082 224.427 30.314C224.847 29.534 225.429 28.934 226.173 28.514C226.917 28.082 227.769 27.866 228.729 27.866C229.965 27.866 230.985 28.178 231.789 28.802C232.605 29.414 233.151 30.278 233.427 31.394H230.709C230.565 30.962 230.319 30.626 229.971 30.386C229.635 30.134 229.215 30.008 228.711 30.008C227.991 30.008 227.421 30.272 227.001 30.8C226.581 31.316 226.371 32.054 226.371 33.014C226.371 33.962 226.581 34.7 227.001 35.228C227.421 35.744 227.991 36.002 228.711 36.002C229.731 36.002 230.397 35.546 230.709 34.634H233.427C233.151 35.714 232.605 36.572 231.789 37.208C230.973 37.844 229.953 38.162 228.729 38.162C227.769 38.162 226.917 37.952 226.173 37.532C225.429 37.1 224.847 36.5 224.427 35.732C224.007 34.952 223.797 34.046 223.797 33.014ZM238.207 30.098V34.922C238.207 35.258 238.285 35.504 238.441 35.66C238.609 35.804 238.885 35.876 239.269 35.876H240.439V38H238.855C236.731 38 235.669 36.968 235.669 34.904V30.098H234.481V28.028H235.669V25.562H238.207V28.028H240.439V30.098H238.207ZM243.53 26.84C243.086 26.84 242.714 26.702 242.414 26.426C242.126 26.138 241.982 25.784 241.982 25.364C241.982 24.944 242.126 24.596 242.414 24.32C242.714 24.032 243.086 23.888 243.53 23.888C243.974 23.888 244.34 24.032 244.628 24.32C244.928 24.596 245.078 24.944 245.078 25.364C245.078 25.784 244.928 26.138 244.628 26.426C244.34 26.702 243.974 26.84 243.53 26.84ZM244.772 28.028V38H242.252V28.028H244.772ZM252.788 27.884C253.976 27.884 254.936 28.262 255.668 29.018C256.4 29.762 256.766 30.806 256.766 32.15V38H254.246V32.492C254.246 31.7 254.048 31.094 253.652 30.674C253.256 30.242 252.716 30.026 252.032 30.026C251.336 30.026 250.784 30.242 250.376 30.674C249.98 31.094 249.782 31.7 249.782 32.492V38H247.262V28.028H249.782V29.27C250.118 28.838 250.544 28.502 251.06 28.262C251.588 28.01 252.164 27.884 252.788 27.884ZM263.068 27.866C263.812 27.866 264.466 28.016 265.03 28.316C265.594 28.604 266.038 28.982 266.362 29.45V28.028H268.9V38.072C268.9 38.996 268.714 39.818 268.342 40.538C267.97 41.27 267.412 41.846 266.668 42.266C265.924 42.698 265.024 42.914 263.968 42.914C262.552 42.914 261.388 42.584 260.476 41.924C259.576 41.264 259.066 40.364 258.946 39.224H261.448C261.58 39.68 261.862 40.04 262.294 40.304C262.738 40.58 263.272 40.718 263.896 40.718C264.628 40.718 265.222 40.496 265.678 40.052C266.134 39.62 266.362 38.96 266.362 38.072V36.524C266.038 36.992 265.588 37.382 265.012 37.694C264.448 38.006 263.8 38.162 263.068 38.162C262.228 38.162 261.46 37.946 260.764 37.514C260.068 37.082 259.516 36.476 259.108 35.696C258.712 34.904 258.514 33.998 258.514 32.978C258.514 31.97 258.712 31.076 259.108 30.296C259.516 29.516 260.062 28.916 260.746 28.496C261.442 28.076 262.216 27.866 263.068 27.866ZM266.362 33.014C266.362 32.402 266.242 31.88 266.002 31.448C265.762 31.004 265.438 30.668 265.03 30.44C264.622 30.2 264.184 30.08 263.716 30.08C263.248 30.08 262.816 30.194 262.42 30.422C262.024 30.65 261.7 30.986 261.448 31.43C261.208 31.862 261.088 32.378 261.088 32.978C261.088 33.578 261.208 34.106 261.448 34.562C261.7 35.006 262.024 35.348 262.42 35.588C262.828 35.828 263.26 35.948 263.716 35.948C264.184 35.948 264.622 35.834 265.03 35.606C265.438 35.366 265.762 35.03 266.002 34.598C266.242 34.154 266.362 33.626 266.362 33.014Z" fill="#1ABC9C"/>
<path d="M280.222 30.098H278.476V38H275.92V30.098H274.786V28.028H275.92V27.524C275.92 26.3 276.268 25.4 276.964 24.824C277.66 24.248 278.71 23.978 280.114 24.014V26.138C279.502 26.126 279.076 26.228 278.836 26.444C278.596 26.66 278.476 27.05 278.476 27.614V28.028H280.222V30.098ZM284.375 29.576C284.699 29.048 285.119 28.634 285.635 28.334C286.163 28.034 286.763 27.884 287.435 27.884V30.53H286.769C285.977 30.53 285.377 30.716 284.969 31.088C284.573 31.46 284.375 32.108 284.375 33.032V38H281.855V28.028H284.375V29.576ZM293.561 38.162C292.601 38.162 291.737 37.952 290.969 37.532C290.201 37.1 289.595 36.494 289.151 35.714C288.719 34.934 288.503 34.034 288.503 33.014C288.503 31.994 288.725 31.094 289.169 30.314C289.625 29.534 290.243 28.934 291.023 28.514C291.803 28.082 292.673 27.866 293.633 27.866C294.593 27.866 295.463 28.082 296.243 28.514C297.023 28.934 297.635 29.534 298.079 30.314C298.535 31.094 298.763 31.994 298.763 33.014C298.763 34.034 298.529 34.934 298.061 35.714C297.605 36.494 296.981 37.1 296.189 37.532C295.409 37.952 294.533 38.162 293.561 38.162ZM293.561 35.966C294.017 35.966 294.443 35.858 294.839 35.642C295.247 35.414 295.571 35.078 295.811 34.634C296.051 34.19 296.171 33.65 296.171 33.014C296.171 32.066 295.919 31.34 295.415 30.836C294.923 30.32 294.317 30.062 293.597 30.062C292.877 30.062 292.271 30.32 291.779 30.836C291.299 31.34 291.059 32.066 291.059 33.014C291.059 33.962 291.293 34.694 291.761 35.21C292.241 35.714 292.841 35.966 293.561 35.966ZM312.995 27.884C314.219 27.884 315.203 28.262 315.947 29.018C316.703 29.762 317.081 30.806 317.081 32.15V38H314.561V32.492C314.561 31.712 314.363 31.118 313.967 30.71C313.571 30.29 313.031 30.08 312.347 30.08C311.663 30.08 311.117 30.29 310.709 30.71C310.313 31.118 310.115 31.712 310.115 32.492V38H307.595V32.492C307.595 31.712 307.397 31.118 307.001 30.71C306.605 30.29 306.065 30.08 305.381 30.08C304.685 30.08 304.133 30.29 303.725 30.71C303.329 31.118 303.131 31.712 303.131 32.492V38H300.611V28.028H303.131V29.234C303.455 28.814 303.869 28.484 304.373 28.244C304.889 28.004 305.453 27.884 306.065 27.884C306.845 27.884 307.541 28.052 308.153 28.388C308.765 28.712 309.239 29.18 309.575 29.792C309.899 29.216 310.367 28.754 310.979 28.406C311.603 28.058 312.275 27.884 312.995 27.884Z" fill="#5F6569"/>
</svg>
