<svg width="15" height="15" viewBox="0 0 15 15" fill="none" xmlns="http://www.w3.org/2000/svg">
<path d="M5.62528 0.26091C5.79609 0.469158 5.8544 0.78301 5.70065 1.06512C5.1751 2.02944 4.87641 3.13408 4.87641 4.30956C4.87641 8.07872 7.95028 11.1307 11.7377 11.1307C12.2311 11.1307 12.712 11.0789 13.1751 10.9808C13.4918 10.9137 13.7798 11.0569 13.9342 11.2768C14.0935 11.5037 14.1269 11.8423 13.9049 12.1148C12.4719 13.8736 10.2795 15 7.8221 15C3.50008 15 0 11.5185 0 7.22815C0 3.99919 1.98201 1.22997 4.80332 0.0563323C5.12928 -0.0792667 5.44902 0.0460248 5.62528 0.26091ZM4.55435 1.22873C2.41406 2.38339 0.960855 4.63696 0.960855 7.22815C0.960855 10.9973 4.03472 14.0492 7.8221 14.0492C9.73083 14.0492 11.4577 13.2748 12.7023 12.0228C12.386 12.0615 12.0641 12.0814 11.7377 12.0814C7.41564 12.0814 3.91556 8.59986 3.91556 4.30956C3.91556 3.21576 4.14324 2.17381 4.55435 1.22873Z" fill="#EFE1E1"/>
</svg>
