<svg width="27" height="27" viewBox="0 0 27 27" fill="none" xmlns="http://www.w3.org/2000/svg">
<path d="M13.5 24.4375C7.45939 24.4375 2.5625 19.5406 2.5625 13.5C2.5625 7.45939 7.45939 2.5625 13.5 2.5625C19.5406 2.5625 24.4375 7.45939 24.4375 13.5C24.4375 19.5406 19.5406 24.4375 13.5 24.4375ZM13.5 26C20.4036 26 26 20.4036 26 13.5C26 6.59644 20.4036 1 13.5 1C6.59644 1 1 6.59644 1 13.5C1 20.4036 6.59644 26 13.5 26Z" fill="white"/>
<path d="M13.5 7.25C13.9315 7.25 14.2812 7.59978 14.2812 8.03125V12.7188H18.9688C19.4002 12.7188 19.75 13.0685 19.75 13.5C19.75 13.9315 19.4002 14.2812 18.9688 14.2812H14.2812V18.9688C14.2812 19.4002 13.9315 19.75 13.5 19.75C13.0685 19.75 12.7188 19.4002 12.7188 18.9688V14.2812H8.03125C7.59978 14.2812 7.25 13.9315 7.25 13.5C7.25 13.0685 7.59978 12.7188 8.03125 12.7188H12.7188V8.03125C12.7188 7.59978 13.0685 7.25 13.5 7.25Z" fill="white"/>
<path d="M14.2812 12.7188H13.7812V13.2188H14.2812V12.7188ZM14.2812 14.2812V13.7812H13.7812V14.2812H14.2812ZM12.7188 14.2812H13.2188V13.7812H12.7188V14.2812ZM12.7188 12.7188V13.2188H13.2188V12.7188H12.7188ZM23.9375 13.5C23.9375 19.2645 19.2645 23.9375 13.5 23.9375V24.9375C19.8168 24.9375 24.9375 19.8168 24.9375 13.5H23.9375ZM13.5 3.0625C19.2645 3.0625 23.9375 7.73553 23.9375 13.5H24.9375C24.9375 7.18324 19.8168 2.0625 13.5 2.0625V3.0625ZM3.0625 13.5C3.0625 7.73553 7.73553 3.0625 13.5 3.0625V2.0625C7.18324 2.0625 2.0625 7.18324 2.0625 13.5H3.0625ZM13.5 23.9375C7.73553 23.9375 3.0625 19.2645 3.0625 13.5H2.0625C2.0625 19.8168 7.18324 24.9375 13.5 24.9375V23.9375ZM25.5 13.5C25.5 20.1274 20.1274 25.5 13.5 25.5V26.5C20.6797 26.5 26.5 20.6797 26.5 13.5H25.5ZM13.5 1.5C20.1274 1.5 25.5 6.87258 25.5 13.5H26.5C26.5 6.3203 20.6797 0.5 13.5 0.5V1.5ZM1.5 13.5C1.5 6.87258 6.87258 1.5 13.5 1.5V0.5C6.3203 0.5 0.5 6.3203 0.5 13.5H1.5ZM13.5 25.5C6.87258 25.5 1.5 20.1274 1.5 13.5H0.5C0.5 20.6797 6.3203 26.5 13.5 26.5V25.5ZM14.7812 8.03125C14.7812 7.32364 14.2076 6.75 13.5 6.75V7.75C13.6553 7.75 13.7812 7.87592 13.7812 8.03125H14.7812ZM14.7812 12.7188V8.03125H13.7812V12.7188H14.7812ZM18.9688 12.2188H14.2812V13.2188H18.9688V12.2188ZM20.25 13.5C20.25 12.7924 19.6764 12.2188 18.9688 12.2188V13.2188C19.1241 13.2188 19.25 13.3447 19.25 13.5H20.25ZM18.9688 14.7812C19.6764 14.7812 20.25 14.2076 20.25 13.5H19.25C19.25 13.6553 19.1241 13.7812 18.9688 13.7812V14.7812ZM14.2812 14.7812H18.9688V13.7812H14.2812V14.7812ZM14.7812 18.9688V14.2812H13.7812V18.9688H14.7812ZM13.5 20.25C14.2076 20.25 14.7812 19.6764 14.7812 18.9688H13.7812C13.7812 19.1241 13.6553 19.25 13.5 19.25V20.25ZM12.2188 18.9688C12.2188 19.6764 12.7924 20.25 13.5 20.25V19.25C13.3447 19.25 13.2188 19.1241 13.2188 18.9688H12.2188ZM12.2188 14.2812V18.9688H13.2188V14.2812H12.2188ZM8.03125 14.7812H12.7188V13.7812H8.03125V14.7812ZM6.75 13.5C6.75 14.2076 7.32364 14.7812 8.03125 14.7812V13.7812C7.87592 13.7812 7.75 13.6553 7.75 13.5H6.75ZM8.03125 12.2188C7.32364 12.2188 6.75 12.7924 6.75 13.5H7.75C7.75 13.3447 7.87592 13.2188 8.03125 13.2188V12.2188ZM12.7188 12.2188H8.03125V13.2188H12.7188V12.2188ZM12.2188 8.03125V12.7188H13.2188V8.03125H12.2188ZM13.5 6.75C12.7924 6.75 12.2188 7.32364 12.2188 8.03125H13.2188C13.2188 7.87592 13.3447 7.75 13.5 7.75V6.75Z" fill="white"/>
</svg>
