<svg width="21" height="22" viewBox="0 0 21 22" fill="none" xmlns="http://www.w3.org/2000/svg">
<path d="M15.4116 14.056C16.4495 12.6959 17.0625 11.0169 17.0625 9.20002C17.0625 4.665 13.2429 0.988647 8.53125 0.988647C3.81957 0.988647 0 4.665 0 9.20002C0 13.735 3.81957 17.4114 8.53125 17.4114C10.4194 17.4114 12.1643 16.821 13.5775 15.8216L13.5764 15.8224C13.6151 15.8729 13.6582 15.9213 13.7057 15.967L18.7594 20.8312C19.272 21.3246 20.103 21.3246 20.6156 20.8312C21.1281 20.3379 21.1281 19.538 20.6156 19.0447L15.5618 14.1804C15.5143 14.1347 15.4641 14.0932 15.4116 14.056ZM15.75 9.20002C15.75 13.0373 12.5181 16.1481 8.53125 16.1481C4.54444 16.1481 1.3125 13.0373 1.3125 9.20002C1.3125 5.3627 4.54444 2.25193 8.53125 2.25193C12.5181 2.25193 15.75 5.3627 15.75 9.20002Z" fill="#6EC6CC"/>
</svg>
