<svg width="38" height="38" viewBox="0 0 38 38" fill="none" xmlns="http://www.w3.org/2000/svg">
<path fill-rule="evenodd" clip-rule="evenodd" d="M14.25 29.6875C14.25 29.0317 14.7817 28.5 15.4375 28.5H32.0625C32.7184 28.5 33.25 29.0317 33.25 29.6875C33.25 30.3433 32.7184 30.875 32.0625 30.875H15.4375C14.7817 30.875 14.25 30.3433 14.25 29.6875Z" fill="#2C3E50"/>
<path fill-rule="evenodd" clip-rule="evenodd" d="M4.75003 22.5625C4.75003 21.9067 5.28169 21.375 5.93753 21.375H32.0625C32.7184 21.375 33.25 21.9067 33.25 22.5625C33.25 23.2183 32.7184 23.75 32.0625 23.75H5.93753C5.28169 23.75 4.75003 23.2183 4.75003 22.5625Z" fill="#2C3E50"/>
<path fill-rule="evenodd" clip-rule="evenodd" d="M14.25 15.4375C14.25 14.7817 14.7817 14.25 15.4375 14.25H32.0625C32.7184 14.25 33.25 14.7817 33.25 15.4375C33.25 16.0933 32.7184 16.625 32.0625 16.625H15.4375C14.7817 16.625 14.25 16.0933 14.25 15.4375Z" fill="#2C3E50"/>
<path fill-rule="evenodd" clip-rule="evenodd" d="M4.75003 8.3125C4.75003 7.65666 5.28169 7.125 5.93753 7.125H32.0625C32.7184 7.125 33.25 7.65666 33.25 8.3125C33.25 8.96834 32.7184 9.5 32.0625 9.5H5.93753C5.28169 9.5 4.75003 8.96834 4.75003 8.3125Z" fill="#2C3E50"/>
</svg>
