<svg width="38" height="38" viewBox="0 0 38 38" fill="none" xmlns="http://www.w3.org/2000/svg">
<path d="M11.0353 11.0353C11.4991 10.5716 12.2509 10.5716 12.7147 11.0353L19 17.3206L25.2853 11.0353C25.7491 10.5716 26.5009 10.5716 26.9647 11.0353C27.4284 11.4991 27.4284 12.2509 26.9647 12.7147L20.6794 19L26.9647 25.2853C27.4284 25.7491 27.4284 26.5009 26.9647 26.9647C26.5009 27.4284 25.7491 27.4284 25.2853 26.9647L19 20.6794L12.7147 26.9647C12.2509 27.4284 11.4991 27.4284 11.0353 26.9647C10.5716 26.5009 10.5716 25.7491 11.0353 25.2853L17.3206 19L11.0353 12.7147C10.5716 12.2509 10.5716 11.4991 11.0353 11.0353Z" fill="#C43F3F"/>
</svg>
